<?xml version="1.0" encoding="UTF-8"?>
<!DOCTYPE svg PUBLIC "-//W3C//DTD SVG 1.1//EN" "http://www.w3.org/Graphics/SVG/1.1/DTD/svg11.dtd">
<!-- Creator: CorelDRAW X7.4 EN Portable -->
<svg xmlns="http://www.w3.org/2000/svg" xml:space="preserve" width="0.901642in" height="0.823492in" version="1.1" style="shape-rendering:geometricPrecision; text-rendering:geometricPrecision; image-rendering:optimizeQuality; fill-rule:evenodd; clip-rule:evenodd"
viewBox="0 0 137 125"
 xmlns:xlink="http://www.w3.org/1999/xlink">
 <defs>
  <style type="text/css">
   <![CDATA[
    .fil96 {fill:#4B3A03}
    .fil83 {fill:#594805}
    .fil104 {fill:#68530F}
    .fil110 {fill:#6A5728}
    .fil111 {fill:#715D2C}
    .fil112 {fill:#786536}
    .fil92 {fill:#7B6509}
    .fil48 {fill:#8A6C25}
    .fil109 {fill:#8A7442}
    .fil108 {fill:#8B6F10}
    .fil113 {fill:#8B7239}
    .fil59 {fill:#8D722F}
    .fil61 {fill:#947938}
    .fil106 {fill:#948413}
    .fil89 {fill:#967D43}
    .fil103 {fill:#969039}
    .fil93 {fill:#97780A}
    .fil99 {fill:#978623}
    .fil107 {fill:#989254}
    .fil65 {fill:#9C8345}
    .fil102 {fill:#9C9547}
    .fil0 {fill:#9D6E00}
    .fil97 {fill:#A49845}
    .fil77 {fill:#A58A4A}
    .fil95 {fill:#A59B2B}
    .fil94 {fill:#A79C38}
    .fil98 {fill:#A89A27}
    .fil101 {fill:#ABA228}
    .fil114 {fill:#AC8C13}
    .fil63 {fill:#AD934F}
    .fil100 {fill:#ADA234}
    .fil105 {fill:#B3A62A}
    .fil56 {fill:#B69A55}
    .fil115 {fill:#B7A84E}
    .fil85 {fill:#BFC14A}
    .fil86 {fill:#BFCB03}
    .fil50 {fill:#C1CC06}
    .fil79 {fill:#C3CE0B}
    .fil49 {fill:#C6D00F}
    .fil84 {fill:#C7D111}
    .fil68 {fill:#C9AC62}
    .fil43 {fill:#C9D214}
    .fil74 {fill:#CAB825}
    .fil90 {fill:#CAC84D}
    .fil82 {fill:#CDD51B}
    .fil80 {fill:#D1D61D}
    .fil71 {fill:#D3CA76}
    .fil91 {fill:#D4BA28}
    .fil58 {fill:#D6BE32}
    .fil64 {fill:#D6D928}
    .fil69 {fill:#D7C62A}
    .fil73 {fill:#D8CD66}
    .fil57 {fill:#DAD532}
    .fil62 {fill:#DBD35B}
    .fil78 {fill:#DCC21A}
    .fil70 {fill:#DCDD32}
    .fil42 {fill:#DEE136}
    .fil47 {fill:#E2D354}
    .fil3 {fill:#E3C300}
    .fil87 {fill:#E3D051}
    .fil67 {fill:#E3E23B}
    .fil53 {fill:#E6DA59}
    .fil60 {fill:#E7DC64}
    .fil31 {fill:#E8D74A}
    .fil75 {fill:#EAE545}
    .fil52 {fill:#EAE848}
    .fil39 {fill:#EDDD3E}
    .fil81 {fill:#F1DD39}
    .fil30 {fill:#F3E534}
    .fil54 {fill:#F3ED55}
    .fil72 {fill:#F7F05C}
    .fil88 {fill:#FBF25E}
    .fil21 {fill:#FDE91C}
    .fil36 {fill:#FDEC2E}
    .fil22 {fill:#FDED29}
    .fil33 {fill:#FDED35}
    .fil15 {fill:#FDF15E}
    .fil1 {fill:#FEE521}
    .fil4 {fill:#FEEA1D}
    .fil44 {fill:#FEEB1E}
    .fil10 {fill:#FEEC1C}
    .fil28 {fill:#FEED32}
    .fil46 {fill:#FEEF3A}
    .fil6 {fill:#FEF122}
    .fil9 {fill:#FEF156}
    .fil23 {fill:#FEF26B}
    .fil14 {fill:#FEF365}
    .fil26 {fill:#FEF682}
    .fil41 {fill:#FEF785}
    .fil40 {fill:#FEF78B}
    .fil29 {fill:#FFE721}
    .fil7 {fill:#FFE821}
    .fil17 {fill:#FFEC21}
    .fil2 {fill:#FFED1F}
    .fil18 {fill:#FFED22}
    .fil13 {fill:#FFEE1E}
    .fil37 {fill:#FFEE2A}
    .fil66 {fill:#FFEF34}
    .fil27 {fill:#FFEF37}
    .fil12 {fill:#FFF03C}
    .fil51 {fill:#FFF03E}
    .fil5 {fill:#FFF144}
    .fil45 {fill:#FFF146}
    .fil11 {fill:#FFF149}
    .fil8 {fill:#FFF14E}
    .fil76 {fill:#FFF158}
    .fil34 {fill:#FFF254}
    .fil24 {fill:#FFF25B}
    .fil20 {fill:#FFF35F}
    .fil55 {fill:#FFF36D}
    .fil16 {fill:#FFF46A}
    .fil32 {fill:#FFF571}
    .fil19 {fill:#FFF575}
    .fil25 {fill:#FFF679}
    .fil35 {fill:#FFF67D}
    .fil38 {fill:#FFF893}
   ]]>
  </style>
 </defs>
 <g id="Layer_x0020_1">
  <metadata id="CorelCorpID_0Corel-Layer"/>
  <g id="_344904464">
   <path class="fil0" d="M23 38c0,0 -1,1 -1,2l1 -1 0 1c0,1 0,2 -1,3 0,0 0,1 0,1 -1,1 -1,1 -1,1l0 -1 -1 -2 0 0c0,0 0,-2 0,-2 0,-1 0,-3 0,-4l1 -2c0,-1 0,-2 1,-2l0 0 1 2 0 0c0,1 0,2 0,2 0,1 0,1 0,2zm1 -12c0,-1 0,-1 1,-1 0,-1 0,-1 0,-1l0 -1c1,0 2,-1 3,-1 1,0 2,-1 2,-1l0 2c0,3 1,6 2,9l1 2c0,0 1,1 1,1 0,0 0,1 1,1 0,1 0,1 0,1 0,1 1,1 1,2 1,0 1,1 2,2 0,1 1,1 1,2 1,1 2,2 2,2 0,1 0,1 1,1l1 3c1,0 1,0 1,1 1,0 1,1 2,1 0,1 0,1 0,1 1,1 1,1 1,1 0,0 0,0 0,0 0,0 0,0 0,0 1,1 1,1 1,1 0,0 0,0 1,0 0,1 0,1 0,1 1,0 2,1 2,2 1,0 1,0 1,1 1,0 1,0 1,0l0 0c1,0 1,0 1,1 0,0 1,0 1,0 0,0 1,1 1,1 1,0 1,0 1,0 0,1 1,1 1,1 0,0 0,0 0,0 1,0 1,0 2,1 0,0 2,0 2,1 1,0 3,1 4,1 2,0 3,1 5,1l2 0 1 0 3 0 4 0c0,0 1,0 1,0l1 0c1,0 1,0 2,0l1 0 2 0 2 -1 1 0 1 0 3 0 3 0 1 -1 2 0 5 -1c3,1 6,0 10,1 2,0 7,1 9,2 1,0 3,1 4,2 1,2 -1,3 0,5l0 1c0,0 0,1 1,1 0,1 0,1 1,1 -1,1 -1,1 -2,2 -1,0 -3,3 -4,3l-3 2c-2,0 -3,1 -4,1 -4,2 -8,4 -11,5 -2,1 -4,2 -6,2 -2,1 -6,2 -7,1 -1,1 -3,1 -3,1 -4,1 -7,1 -10,1 -5,0 -9,1 -14,0 -5,-1 -9,-2 -13,-3 -5,-2 -10,-5 -14,-8l-3 -3c0,0 -1,-1 -1,-1 0,0 0,0 -1,-1 0,0 0,0 0,-1l-3 -3c0,0 0,0 0,0 0,0 -1,-1 -1,-1 0,0 0,0 0,-1 -1,-1 -2,-3 -3,-5 0,0 0,0 0,0 0,0 0,0 0,0 0,0 0,0 0,0 -1,-2 -1,-3 -2,-5 0,0 0,-1 0,-2 -1,-1 -1,-1 -1,-2l-1 -1 0 -2 0 -1 -1 -1 0 -1 0 -4c1,-1 1,-2 1,-3l1 -1 0 -1 0 -2 0 0c1,-5 -1,-9 -2,-13 0,0 1,-1 1,-1zm-2 -2l0 1c-1,0 -2,1 -2,1l0 2 0 1 -1 2c0,1 -1,4 -1,4 0,1 0,2 0,2l0 2 0 2 0 2 1 2 0 2 1 2 1 2 0 2 1 1 0 1 0 1 0 0 0 1c1,1 1,1 1,2 0,0 0,0 0,0 0,0 0,1 0,1 0,0 0,0 0,0 1,1 1,1 1,1 0,0 0,0 0,1l1 3c0,1 1,2 1,3l1 1 0 1 1 2 1 1 1 1 0 1c1,0 1,1 1,1 1,1 1,1 1,1 1,1 1,1 1,2 1,0 1,0 1,1l3 3c1,0 2,1 3,2 0,0 0,0 1,0 0,1 0,1 1,1 0,0 0,0 0,0l0 0c0,0 5,3 6,4l3 1c0,0 2,1 3,1 1,1 2,1 3,2 1,0 1,0 2,0 0,0 1,0 1,0l2 1 1 0 1 0 3 0 1 1 1 0 2 0 4 0 2 0 1 0c1,0 2,0 3,0 0,0 1,-1 1,-1 1,0 1,0 2,0l2 0 3 0 1 0 1 0 2 -1 2 0c0,1 1,1 2,2l0 0 0 1 0 2 0 0c0,0 0,0 0,1l1 0 0 0c-1,3 -2,5 -4,7 -2,2 -1,2 -3,3 -1,1 -2,2 -3,3 -5,4 -9,7 -16,8 -9,1 -21,0 -30,-3 -3,-1 -5,-2 -7,-4l-1 0c0,0 0,0 0,0 0,0 -2,-2 -3,-2 0,-1 -2,-2 -2,-2 -1,0 -2,-1 -3,-2l0 0c0,0 0,0 -1,-1 0,0 -1,-1 -2,-1 0,-1 0,-1 -1,-1 -1,-1 -3,-3 -3,-4 -1,-1 -1,-1 -1,-1 -1,-1 -3,-4 -4,-5l-1 -1c0,-1 0,0 0,-1 -1,0 -4,-7 -4,-8l-1 0c-1,-2 -2,-6 -3,-8 0,-1 -1,-5 -1,-7 0,0 -1,-2 -1,-3 0,-2 0,-3 0,-5 0,-2 0,-6 0,-8 1,-2 2,-6 3,-8l1 -4 1 -1 1 -2 0 -1 1 -1 0 -1 1 -1 0 -1 0 -1 1 -1 0 -2c0,-2 0,-3 0,-5 2,0 2,0 4,0l1 0 0 0 1 -1c1,0 2,-1 2,-1l1 0c0,-1 1,-1 2,0 0,0 0,0 0,0l0 0c0,1 0,1 -1,1zm10 -4c0,-1 0,-1 1,-1 0,-1 0,-1 1,-2 0,0 0,1 0,1 0,0 0,1 1,1l0 1 1 2c0,1 1,2 1,3 0,1 1,1 1,2l1 1c0,1 0,1 0,1 0,0 1,0 1,0 0,1 0,1 0,1 1,1 1,1 1,2 1,0 1,0 2,1 0,0 2,1 2,1 3,2 6,4 8,6 1,2 3,3 4,4 1,0 4,1 5,2 3,1 6,1 9,1 2,0 4,0 6,0l5 -1 3 -1 3 0 3 -1 3 -1 3 -1c2,-1 4,-2 6,-3 2,-1 4,-1 7,-2 2,0 13,-2 14,-2l1 0c0,0 0,0 1,0l4 0c0,1 0,1 0,3 0,0 1,2 2,2 0,0 0,0 1,1l1 0 0 1 -1 2c0,1 -1,3 -1,3 0,1 -1,2 -2,3 0,1 0,1 0,1 -1,1 -1,1 -2,2 0,0 -1,1 -1,1 -1,1 -1,1 -2,2 -1,0 -1,1 -2,1 -1,1 -3,3 -4,3 0,1 0,0 -1,1l-2 -1 0 0 -2 0 -2 0 -1 0 -1 0 -1 0c-1,0 -3,0 -3,0 -1,0 -2,0 -3,0l-2 1 -1 0 -1 0c-2,0 -4,1 -6,1l-2 0 -3 0c-1,0 -1,0 -2,0 -1,0 -2,0 -2,0l-3 0c-1,1 -1,0 -2,0 0,0 0,0 0,0 -1,0 -1,0 -2,0l-1 0c-1,0 -2,0 -3,0 -1,0 0,0 -1,0 -2,0 -5,-1 -6,-1l-1 -1 -3 -1c0,0 -1,0 -1,0l-1 -1 -1 0 -1 -1 -1 -1c-1,0 -1,0 -1,0l-1 -1 -1 0c0,-1 -1,-1 -1,-1 -1,-1 -2,-2 -2,-2 -1,0 -1,-1 -1,-1 -1,0 -1,0 -1,-1l-1 -1c0,0 -2,-2 -2,-3 -1,0 -1,0 -1,-1l-4 -4c0,0 0,0 0,0 -1,-1 -1,-2 -2,-3l-1 -1c0,0 0,0 0,0 0,0 0,0 -1,-1 0,0 0,0 0,-1 -1,0 -1,0 -1,-1l-1 -1c0,0 -1,-2 -1,-2 0,-1 0,-2 0,-3 0,-1 -1,0 -1,-1 0,0 0,-1 0,-1l-1 -1c0,-1 0,-1 0,-2 0,-1 0,-1 0,-2 0,0 0,0 0,0 0,-1 0,-1 0,-1zm-22 -1l0 -2 0 -1 1 -1c0,-1 0,-1 0,-1 0,0 1,0 2,1 0,0 0,0 1,0l2 1 1 0 1 0c1,0 1,0 1,1 0,1 0,2 0,2l0 2c0,0 0,0 0,0 0,0 0,1 -1,1l0 0c-1,0 -2,1 -3,1 0,0 -1,0 -2,0 0,0 -1,-1 -1,-1 0,0 -1,0 -1,0 0,-1 -1,-2 -1,-3zm24 -7c0,0 0,0 0,1 0,0 -1,1 -1,1 0,1 -1,1 -1,2 0,0 0,0 0,0 -1,1 0,0 -1,1 0,0 -1,1 -1,1 -1,0 -1,0 -1,0l0 1c-1,0 -2,2 -3,2 0,0 0,0 0,0 -1,0 -1,0 -1,0 0,0 0,0 -1,0l-1 0 -1 -1 0 -2c-1,0 -1,-1 -1,-2l0 -1c0,0 0,0 0,0 1,-1 1,-1 1,-1 1,0 1,0 1,-1 0,0 1,-1 1,-1 1,0 1,-1 1,-1 0,0 1,0 1,-1 0,0 1,-1 1,-1 0,-1 0,-1 1,-1l0 -1 1 -1 0 -1c1,1 2,3 3,3 1,1 2,1 3,2 0,1 0,1 0,2l-1 0zm-8 -5c-1,0 -1,0 -1,1 0,0 0,0 -1,1 0,0 0,0 0,0 0,1 -1,1 -1,1 0,0 0,1 0,1 -1,0 0,0 -1,0 0,0 0,0 0,0 0,0 0,1 0,1 -1,0 -1,0 -1,0 0,0 0,0 0,1 -1,0 -1,0 -1,0l0 0c-1,1 -1,1 -2,1l-2 0 0 0c-1,0 -2,-1 -3,-1l0 0 -1 -1c0,0 1,-1 1,-1l1 -1 2 -2 0 -1 1 0c1,-1 2,0 3,-2 0,0 0,0 0,0 0,-1 0,0 0,-1l1 0 1 -1c0,0 2,-1 3,0 2,0 1,1 2,1l1 0c-1,1 -2,2 -2,3zm-8 -3c-1,0 -2,1 -2,1 -1,1 -2,1 -3,2l-2 2c0,1 -1,1 -1,1 0,1 0,1 0,1 -1,0 -1,0 -1,1 -1,0 -1,5 -1,6 0,3 2,5 2,7 0,8 -2,9 -5,16 -2,6 -4,10 -5,16 0,2 0,5 0,7 0,1 0,2 0,2 0,2 0,3 1,4 1,11 7,21 13,31l2 2c0,0 0,1 1,1 1,2 4,5 7,7 0,0 0,0 1,1l5 4c2,1 3,2 5,3l4 2c7,3 14,4 23,4 6,0 13,0 18,-3 1,0 2,0 3,-1 2,-1 4,-3 6,-5l2 -2c1,-1 2,-1 3,-3 2,-1 3,-3 4,-4 0,0 0,0 0,-1 1,-1 2,-2 4,-3 0,0 0,0 0,-1 1,0 1,-1 2,-2 -1,-1 -1,-1 -1,-2 -1,-1 0,-3 -1,-3 0,-1 -1,-1 -1,-1 2,-1 8,-3 9,-4 3,-1 6,-2 9,-4 2,-1 4,-2 6,-3 1,-1 2,-2 3,-3 1,0 1,0 1,-1 1,0 2,-1 3,-2 2,-4 0,-2 1,-4 0,-1 0,-1 0,-2 0,-1 -1,-1 -1,-3 0,-2 0,-2 -2,-3 -2,-2 -3,-3 -7,-4 2,-1 3,-2 5,-3 0,-1 1,-1 2,-2 2,-3 3,-4 4,-8 1,-2 1,-3 2,-5 0,-1 1,-3 1,-5 0,-1 -1,-3 -2,-3 -1,-1 -1,-1 -1,-1 0,0 -1,0 -1,-1 -1,-1 -2,-1 -4,-1l-6 1c-5,1 -10,1 -15,2 -5,1 -9,3 -13,4 -4,2 -16,5 -21,5 -3,0 -7,0 -10,-1 -4,-1 -6,-2 -9,-5 0,0 0,0 -1,-1 0,0 -1,0 -1,-1 -3,-3 -7,-5 -10,-8 0,0 -1,0 -1,-1 -3,-3 -4,-7 -5,-12 -1,-1 -1,0 0,-1 0,-1 1,-3 1,-4 0,-2 -2,-2 -3,-3 -2,-1 -2,-1 -3,-2 -2,-2 -1,-3 -3,-3 -2,0 -2,-1 -3,-2 -2,0 -4,0 -6,1 0,0 -1,1 -1,1 -1,1 -1,1 -1,2z"/>
   <path class="fil1" d="M94 101l-1 0c-1,1 -7,2 -9,2 -1,0 -10,2 -11,2l1 0c-1,0 -1,0 -1,0 -9,4 -18,6 -28,8 -1,0 -9,1 -11,1 0,0 0,0 0,0l1 0c2,2 4,3 7,4 9,3 21,4 30,3 7,-1 11,-4 16,-8 1,-1 2,-2 3,-3 2,-1 1,-1 3,-3 2,-2 3,-4 4,-7l0 0c-2,3 -5,5 -7,7l-3 3c0,-3 4,-6 6,-7 0,-1 2,-2 2,-2l-1 0c1,-1 0,-1 1,-1 0,0 0,0 0,0 0,0 -1,0 -1,0l-1 1z"/>
   <path class="fil2" d="M34 95c1,0 5,3 7,3 2,2 4,3 7,3 6,2 11,2 18,3l7 -4c1,0 1,0 1,-1l0 0c0,1 -2,1 -2,0l-2 0c0,0 0,0 0,0l0 0 -2 0 -1 -1c-2,0 -4,-1 -5,-2 -1,0 -4,-2 -5,-2 -1,-1 -2,-1 -3,-2 -1,0 -3,-1 -3,-1 -1,0 -2,1 -2,1 -3,1 -7,2 -10,2l-4 0c0,0 0,0 -1,1z"/>
   <path class="fil3" d="M24 26c0,2 1,4 1,6 1,2 1,3 1,5l1 2 0 1 0 2 1 1 0 2 0 1 0 2 1 2 0 1 1 3c0,0 1,2 1,3 1,1 1,3 2,4 1,3 2,4 3,6l2 2c1,1 1,1 1,2 1,0 1,1 2,1 0,0 0,0 0,0l7 6 4 2c3,2 6,3 9,4 1,0 4,0 5,1l8 1 7 -1 2 0c4,0 9,-1 12,-2 2,0 4,-1 6,-2 1,0 3,-1 5,-1l2 -1c0,-1 2,-1 3,-1 0,0 0,0 0,0 0,-1 0,-1 1,-1 0,0 0,0 1,0 0,0 2,-1 3,-1 0,0 5,-1 6,-1 1,-1 2,-1 4,-1 1,0 2,-1 3,-1l0 -1 -2 0 -8 2 -5 1 -2 1 -2 1 -3 0 -4 2 -2 1c-2,1 -15,4 -17,4 -1,0 -10,0 -11,0 -6,0 -12,-1 -17,-3 -3,-2 -7,-4 -9,-6 -1,0 -3,-1 -3,-2 -1,0 -1,-1 -2,-1 0,-1 -1,-2 -1,-2 -1,-1 -3,-3 -3,-3 -1,-1 -2,-3 -2,-4 -1,0 -2,-3 -2,-3l-1 -3c-1,-1 -1,-2 -1,-3 -1,-1 -1,-2 -1,-3l-1 -3c0,-1 0,-1 0,-2 0,-1 -1,-2 -1,-2 0,-1 0,-2 0,-2l0 -1c0,-1 0,-1 0,-2 -1,0 -1,-1 -1,-1l-1 -3 0 -2 0 -3 -1 -2 0 -2 -1 -2 0 0c0,0 0,0 0,1 -1,0 -1,0 -1,1z"/>
   <path class="fil3" d="M16 25c0,1 0,3 -1,4 0,0 0,1 0,2l0 2 0 1 -1 2 0 1 0 2c0,1 0,0 -1,1 1,0 0,1 0,1 0,1 0,1 0,1 0,1 0,1 0,1 0,1 0,1 0,2 0,1 0,4 -1,4 0,1 0,2 0,4l1 3 0 2 0 1 0 2c0,1 1,3 1,5 0,1 1,3 2,4 0,0 0,1 0,1 0,1 0,1 1,1 0,1 0,1 0,1 0,1 0,1 0,1 1,1 2,3 2,4 0,0 0,0 1,1 0,0 0,0 0,1 0,0 1,1 2,2 0,0 0,1 0,1 0,0 0,0 0,0 1,1 2,3 2,3 1,1 1,1 1,2 1,0 1,0 1,1 1,0 1,0 1,1 1,1 3,2 4,3 0,1 0,1 0,1 1,0 1,0 1,1l6 4c0,0 0,0 1,0 0,0 1,0 1,1 0,0 2,1 3,1 1,1 3,1 4,1 2,1 5,2 8,2l7 1c2,0 4,0 6,0 1,0 4,-1 5,0 1,0 10,-2 11,-2 2,0 8,-1 9,-2 0,0 0,0 -1,-1l-2 0c-7,2 -16,3 -24,4 -7,-1 -12,-1 -18,-3 -3,0 -5,-1 -7,-3 -2,0 -6,-3 -7,-3 0,-1 -1,-1 -2,-2l-1 -2c-1,0 -3,-2 -4,-3 0,0 -1,-2 -2,-2 0,-1 -1,-2 -1,-3 0,0 0,0 0,0 -1,0 -3,-4 -3,-5 -1,0 -2,-3 -2,-3l-1 -2 0 -1 -1 -2 -1 -3c0,0 -1,-2 -1,-3 0,0 0,0 0,0 0,0 0,-1 0,-2 0,0 -1,-1 -1,-2 0,0 0,0 0,-1l0 0c0,-1 0,0 0,-1 0,0 0,-1 0,-2 0,0 0,-3 0,-4l0 -7 0 -1 1 -1 0 -1 0 -1 0 -2 1 -2 0 -1 0 -2 1 -5 0 -3 0 -1 -1 0z"/>
   <path class="fil2" d="M25 107c3,0 6,0 9,0 1,0 1,0 2,0 5,0 7,0 12,-1l6 -1c1,-1 1,0 1,-1 -3,0 -6,-1 -8,-2 -1,0 -3,0 -4,-1 -1,0 -3,-1 -3,-1 -1,-1 -2,0 -3,0 -2,0 -6,0 -8,0 -2,0 -5,0 -8,0l-2 0c-1,0 -1,0 -1,-1 -1,0 0,0 0,1 0,0 0,0 1,1 0,1 2,3 3,4 1,0 1,0 1,1 1,0 2,1 2,1z"/>
   <path class="fil4" d="M31 69c0,1 1,3 1,3 2,2 10,5 12,6 4,3 11,5 16,7 8,3 16,5 24,6 2,0 3,0 5,0 1,0 3,1 4,1 1,-1 0,-1 1,-1 1,1 5,0 7,-1 2,0 4,-1 6,-2 3,-1 7,-3 11,-5 0,-3 0,-4 -1,-6 -1,-1 -1,-1 -1,-1 -1,0 -3,1 -3,1 0,0 0,2 0,2 1,4 -1,6 -4,8 -3,1 -8,2 -11,2 -3,1 -9,0 -11,0 -2,0 -5,0 -6,0 0,-1 0,-1 1,-1 0,0 0,0 0,0 -1,0 -2,0 -2,0 -1,0 -1,0 -1,0l-8 -2c0,0 0,0 -1,0l0 0c-2,-1 -3,-1 -4,-1 -1,-1 -4,-1 -5,-1 -3,-1 -6,-2 -9,-4l-4 -2c0,1 -1,0 -1,0l-2 -1c-1,0 -1,0 -2,-1 -1,0 0,0 -2,-1 0,0 0,0 -1,-1 0,0 0,0 -1,0 0,0 0,0 0,0l0 0c-1,-1 -1,-1 -1,-1 0,0 0,0 0,0 -1,0 0,0 -1,0l-2 -2c0,0 0,0 0,0 0,0 0,0 -1,0 -1,-1 -1,-1 -1,-1 -1,0 -1,-1 -1,-1 -1,0 -1,0 -1,0l0 0z"/>
   <path class="fil5" d="M34 60c0,0 1,3 2,3 0,0 3,4 4,4 1,1 1,0 2,2 0,0 0,0 1,1l6 3c0,0 0,0 1,0 0,1 0,1 1,1 0,0 1,0 1,0 9,5 23,9 34,9 5,0 11,-1 13,-4 2,-4 -2,-9 -4,-11l-3 -2c-1,0 -2,-1 -2,-2l-2 1c0,0 3,2 4,3 2,2 4,4 5,7 0,1 -1,3 -1,3 -2,2 -3,2 -6,3 -10,2 -28,-3 -37,-8 -1,0 -1,0 -2,0l-1 -1c0,0 0,0 -1,0l-2 -2c0,0 0,0 -1,0 0,0 0,-1 -1,-1 -1,0 -1,-1 -2,-1 -4,-3 -10,-10 -3,-14 1,0 5,-1 7,-1 0,0 0,0 -1,-1 0,0 0,0 0,-1 -1,0 -1,1 -2,1 -3,0 -7,0 -10,3 -1,2 0,3 0,5z"/>
   <path class="fil6" d="M39 36c1,0 1,0 1,1 1,1 2,2 2,2l0 0c1,1 1,1 2,2l0 1c1,0 1,0 1,1l1 1 1 1c0,0 1,1 1,1l1 1c1,0 1,0 1,1l1 1 2 1c1,1 1,1 1,1l1 1c0,0 0,0 0,0 0,0 1,0 1,0 0,0 0,0 1,1 0,-1 0,-2 1,-2 0,-1 1,-1 1,-2l3 -3c-1,-1 -4,-2 -5,-2 -1,-1 -3,-2 -4,-4 -2,-2 -5,-4 -8,-6 -2,0 -4,0 -6,2z"/>
   <path class="fil7" d="M62 105l-8 2c-4,1 -7,2 -12,2 -1,0 -3,1 -4,1 -2,0 -8,0 -9,0 0,0 2,1 2,2 1,0 3,2 3,2 2,0 10,-1 11,-1 10,-2 19,-4 28,-8 0,0 0,0 1,0l-1 0c-1,-1 -4,0 -5,0 -2,0 -4,0 -6,0z"/>
   <path class="fil4" d="M81 93c0,0 0,0 -1,0 0,0 0,0 0,0l-10 -3c-1,0 -1,0 -2,0l-17 -6c0,0 -1,0 -2,-1 -1,0 -1,0 -1,0 -1,0 -1,0 -2,-1 0,0 0,0 0,0l-4 -1c0,0 0,-1 0,-1 0,0 -1,0 -1,0 -1,0 -2,-1 -2,-1 -1,0 -2,-1 -3,-1 0,0 0,0 0,0 0,0 1,1 1,1l3 3c4,3 9,6 14,8 4,1 8,2 13,3 5,1 9,0 14,0z"/>
   <path class="fil8" d="M86 65l-1 0c0,1 1,1 2,2 0,0 0,0 0,0 0,0 0,0 0,0 1,0 4,4 4,5 3,4 0,6 -4,7 -3,1 -8,0 -12,0 -2,-1 -8,-2 -10,-3 -1,0 -2,0 -3,-1l-9 -4c-2,0 -4,-2 -6,-3 -4,-3 -9,-9 -3,-12 2,-1 5,-1 5,-1 0,0 0,0 0,-1 -1,0 -1,0 -1,0 -2,0 -1,0 -3,0 -1,1 -2,1 -3,1 -2,1 -3,2 -3,4 0,5 5,8 8,10l7 4c8,5 25,9 35,7 2,-1 4,-1 5,-3 2,-2 0,-6 -2,-7 0,-1 0,-1 -1,-1l-3 -3c0,0 0,0 -1,0 0,-1 0,-1 -1,-1z"/>
   <path class="fil4" d="M35 76c0,1 0,1 0,1 1,1 1,1 1,1 0,0 0,0 0,0 1,0 2,1 3,1 0,0 1,1 2,1 0,0 1,0 1,0 0,0 0,1 0,1l4 1c0,0 0,0 0,0 1,1 1,1 2,1 0,0 0,0 1,0 1,1 2,1 2,1l17 6c1,0 1,0 2,0l10 3c0,0 0,0 0,0 1,0 1,0 1,0 3,0 6,0 10,-1 0,0 2,0 3,-1 -1,0 0,0 -1,1 -1,0 -3,-1 -4,-1 -2,0 -3,0 -5,0 -8,-1 -16,-3 -24,-6 -5,-2 -12,-4 -16,-7 -2,-1 -10,-4 -12,-6 1,1 1,2 2,2 0,1 0,2 1,2z"/>
   <path class="fil9" d="M85 65c-1,0 -1,0 -2,0l-1 0c1,1 3,2 4,3 1,1 4,4 3,7 -1,1 -3,2 -4,2 -1,1 -6,1 -8,1l-3 -1c-4,0 -5,-1 -9,-2 -2,0 -8,-3 -10,-4 0,0 -1,0 -1,0l-1 -1c-1,0 -1,0 -1,0l-3 -2c-2,-2 -6,-6 -4,-9 1,-2 5,-3 6,-2 0,-1 -1,-2 -2,-2 0,0 -3,0 -5,1 -6,3 -1,9 3,12 2,1 4,3 6,3l9 4c1,1 2,1 3,1 2,1 8,2 10,3 4,0 9,1 12,0 4,-1 7,-3 4,-7 0,-1 -3,-5 -4,-5 0,0 0,0 0,0 0,0 0,0 0,0 -1,-1 -2,-1 -2,-2z"/>
   <path class="fil10" d="M13 93c0,1 0,0 0,1l1 1c1,1 3,4 4,5 0,-1 -1,-1 0,-1 0,1 0,1 1,1l2 0c3,0 6,0 8,0 2,0 6,0 8,0 1,0 2,-1 3,0 0,-1 -1,-1 -1,-1 -1,0 -1,0 -1,0l-6 -4c-1,-1 -4,0 -5,0 -2,0 -3,-1 -5,-1 -3,0 -8,-1 -9,-1l0 0z"/>
   <path class="fil4" d="M27 88c1,1 3,3 4,3l1 2c1,1 2,1 2,2 1,-1 1,-1 1,-1l4 0c3,0 7,-1 10,-2 0,0 1,-1 2,-1l-3 -1c-1,-1 -6,-4 -6,-4 0,0 0,0 -1,0l-4 1c-1,0 -3,1 -4,1 -1,0 -1,0 -2,0 -1,0 -4,0 -4,0z"/>
   <path class="fil10" d="M19 78c0,-1 -1,-3 -2,-4 0,0 0,0 0,0 -1,0 -4,-2 -4,-2 0,0 0,0 -1,0 0,0 0,0 0,0 -1,-2 -2,-2 -3,-5 -1,-1 -1,-4 0,-6l0 0c0,-1 0,-1 1,-2 0,-1 2,-2 3,-3l-1 -3c-1,0 -3,1 -4,2 -1,1 -2,2 -2,3 -4,7 -1,13 4,16 1,1 2,1 2,2l2 1c2,0 3,1 5,1 0,0 0,0 0,0z"/>
   <path class="fil4" d="M13 93l0 0c1,0 6,1 9,1 2,0 3,1 5,1 1,0 4,-1 5,0 0,-1 0,-1 -1,-1 0,0 0,0 0,-1 -1,-1 -3,-2 -4,-3 0,-1 0,-1 -1,-1 0,0 0,0 -1,0 -4,0 -9,-1 -12,-3l-4 -1c0,0 0,0 0,0 0,1 3,8 4,8z"/>
   <path class="fil11" d="M88 65l-2 0c1,0 1,0 1,1 1,0 1,0 1,0l3 3c1,0 1,0 1,1 2,1 4,5 2,7 -1,2 -3,2 -5,3 -10,2 -27,-2 -35,-7l-7 -4c-3,-2 -8,-5 -8,-10 0,-2 1,-3 3,-4 1,0 2,0 3,-1 2,0 1,0 3,0 0,0 0,0 -1,-1 0,0 0,0 0,0 0,0 0,0 0,0 -2,0 -6,1 -7,1 -7,4 -1,11 3,14 1,0 1,1 2,1 1,0 1,1 1,1 1,0 1,0 1,0l2 2c1,0 1,0 1,0l1 1c1,0 1,0 2,0 9,5 27,10 37,8 3,-1 4,-1 6,-3 0,0 1,-2 1,-3 -1,-3 -3,-5 -5,-7 -1,-1 -4,-3 -4,-3z"/>
   <path class="fil12" d="M41 70c0,0 0,0 1,0 2,2 2,2 4,3 0,0 -1,0 0,0l2 1c0,0 0,0 1,0l7 3c5,2 11,4 16,5 2,1 4,1 6,1l4 1c1,0 1,-1 2,0 2,0 15,-3 17,-4 1,-1 1,-4 0,-6 -1,-2 -3,-5 -5,-6 -1,0 0,0 -1,-1 0,0 1,1 0,0 0,0 0,0 -1,-1l-3 -2 -1 0c0,1 1,2 2,2l3 2c2,2 6,7 4,11 -2,3 -8,4 -13,4 -11,0 -25,-4 -34,-9 0,0 -1,0 -1,0 -1,0 -1,0 -1,-1 -1,0 -1,0 -1,0l-6 -3c-1,-1 -1,-1 -1,-1 -1,-2 -1,-1 -2,-2 -1,0 -4,-4 -4,-4 0,1 1,3 2,4 0,0 2,2 3,3z"/>
   <path class="fil4" d="M119 74l8 -2c0,0 0,0 0,0 0,0 -1,-1 -1,-1l-10 -8c-4,-1 -7,0 -10,-1 0,1 0,0 0,1l4 2c1,1 2,2 3,3l2 1c0,1 0,1 1,1 0,0 0,0 0,1l3 3z"/>
   <path class="fil13" d="M57 53c0,0 1,0 1,1 0,0 0,0 0,0 0,0 0,0 0,0l1 0c0,0 0,0 0,0l1 1c0,0 1,0 1,0 0,0 0,0 1,0 0,1 3,2 4,2 1,0 1,-1 1,-3 1,-3 4,-6 4,-7 -3,0 -6,0 -9,-1l-3 3c0,1 -1,1 -1,2 -1,0 -1,1 -1,2z"/>
   <path class="fil10" d="M3 54c0,2 0,6 0,8 0,2 0,3 0,5 0,1 1,3 1,3 1,3 3,4 5,6 3,1 5,2 8,3 1,1 2,1 3,1 0,0 0,0 0,0 0,-1 0,-1 0,-1 -1,-1 -1,-1 -1,-1 0,0 0,0 0,0 -2,0 -3,-1 -5,-1l-2 -1c0,-1 -1,-1 -2,-2 -5,-3 -8,-9 -4,-16 0,-1 1,-2 2,-3 1,-1 3,-2 4,-2 0,-2 0,-3 0,-4l0 0 -2 1c-3,1 -3,1 -6,3 0,1 0,1 -1,1z"/>
   <path class="fil14" d="M78 66c0,0 0,0 0,0 1,0 0,0 0,0 1,0 1,1 1,1 1,0 2,1 3,2 1,2 1,4 -2,5 -3,2 -11,0 -14,-1 -3,-1 -3,-1 -6,-2l-5 -3c-8,-6 -1,-9 1,-8 0,0 -1,-1 -1,-1 0,0 -1,0 -1,0 -3,-1 -9,2 -4,7 1,1 1,1 2,2 1,0 2,1 4,2l3 2c2,0 5,2 7,2 5,1 12,3 17,1 1,0 2,-1 2,-3 0,-1 -1,-2 -1,-3 -1,-1 -3,-3 -4,-3 -1,-1 -2,0 -2,0z"/>
   <path class="fil4" d="M9 85c0,0 0,0 0,0l4 1c3,2 8,3 12,3 1,0 1,0 1,0 0,-1 0,-1 -1,-1 0,-1 0,-1 -1,-2 0,0 -1,-2 -2,-3 0,1 -1,0 -1,0 -4,0 -6,-1 -10,-3l-5 -2c0,0 0,0 -1,-1 1,2 2,6 3,8l1 0z"/>
   <path class="fil15" d="M98 57c1,0 3,-1 4,-2 -4,1 -12,0 -9,-6 1,-2 2,-3 4,-4 6,-5 18,-9 25,-7 3,1 4,2 4,5 0,0 2,-1 3,-2 0,-1 -1,-2 -2,-3 -3,-2 -8,-2 -11,-1 -7,0 -14,3 -19,6 0,0 0,0 -1,0l-2 2c0,0 0,0 -1,1 -1,1 -3,4 -3,6 0,1 1,2 1,3 2,1 5,2 7,2z"/>
   <path class="fil16" d="M102 55c0,0 3,-1 3,-1 -2,0 -4,0 -7,0 -5,-2 -3,-6 0,-9 2,-1 3,-1 5,-3 0,0 0,0 1,0 5,-2 12,-4 17,-2 2,0 3,2 2,4l3 -1c0,-3 -1,-4 -4,-5 -7,-2 -19,2 -25,7 -2,1 -3,2 -4,4 -3,6 5,7 9,6z"/>
   <path class="fil17" d="M25 107c1,1 1,1 1,1l0 0c1,1 2,2 3,2 1,0 7,0 9,0 1,0 3,-1 4,-1 5,0 8,-1 12,-2l8 -2 -7 -1c0,1 0,0 -1,1l-6 1c-5,1 -7,1 -12,1 -1,0 -1,0 -2,0 -3,0 -6,0 -9,0z"/>
   <path class="fil18" d="M111 78c0,0 0,2 0,3 -1,5 -8,6 -12,7 -1,0 -2,0 -3,0 -2,0 -4,0 -6,0 -1,0 -1,0 -1,0 -1,0 -3,0 -4,0l-1 -1c-3,0 -9,-1 -11,-1l1 0 -8 -1c1,0 2,0 4,1l0 0c1,0 1,0 1,0l8 2c0,0 0,0 1,0 0,0 1,0 2,0 0,0 0,0 0,0 -1,0 -1,0 -1,1 1,0 4,0 6,0 2,0 8,1 11,0 3,0 8,-1 11,-2 3,-2 5,-4 4,-8 0,0 0,-2 0,-2 -1,0 -1,0 -1,0 -1,0 -1,0 -1,1 0,0 0,0 0,0z"/>
   <path class="fil19" d="M105 54c1,0 2,-1 3,-1 0,0 2,-1 2,-1 -1,0 -2,0 -3,0 -1,1 -2,1 -3,1 -2,0 -4,-1 -6,-2 -2,-2 2,-5 3,-6 1,-1 2,-1 3,-2 3,-2 9,-3 14,-2 1,0 2,0 2,1 2,1 0,4 -1,5 1,0 4,-2 4,-3 1,-2 0,-4 -2,-4 -5,-2 -12,0 -17,2 -1,0 -1,0 -1,0 -2,2 -3,2 -5,3 -3,3 -5,7 0,9 3,0 5,0 7,0z"/>
   <path class="fil20" d="M81 65l-4 0c0,1 0,0 0,1 1,0 0,0 1,0 0,0 1,-1 2,0 1,0 3,2 4,3 0,1 1,2 1,3 0,2 -1,3 -2,3 -5,2 -12,0 -17,-1 -2,0 -5,-2 -7,-2l-3 -2c-2,-1 -3,-2 -4,-2 -1,-1 -1,-1 -2,-2 -5,-5 1,-8 4,-7 0,-1 0,-1 -1,-1l0 0c0,0 0,0 -1,0 -1,0 0,0 -2,0 -4,1 -5,3 -3,6 4,5 13,9 18,11 5,1 13,3 19,1 6,-1 3,-6 0,-8l-3 -3z"/>
   <path class="fil21" d="M101 63c0,0 0,1 1,1 0,0 0,0 1,0l2 2c1,1 1,1 1,1l5 5c1,1 2,1 2,2 1,1 1,1 1,1l5 -1 -3 -3c0,-1 0,-1 0,-1 -1,0 -1,0 -1,-1l-2 -1c-1,-1 -2,-2 -3,-3l-4 -2c0,-1 0,0 0,-1l-5 1z"/>
   <path class="fil22" d="M108 79c0,1 0,2 -1,3 -1,2 -5,3 -7,4 -4,1 -7,1 -11,1 -5,0 -3,0 -4,-1l-2 0c-1,0 -2,0 -3,0 1,-1 0,-1 1,-1l-7 1 -1 0c2,0 8,1 11,1l1 1c1,0 3,0 4,0 0,0 0,0 1,0 2,0 4,0 6,0 1,0 2,0 3,0 4,-1 11,-2 12,-7 0,-1 0,-3 0,-3 -1,0 -3,0 -3,1z"/>
   <path class="fil23" d="M78 66c-1,0 0,0 -1,0 0,-1 0,0 0,-1l-3 0 1 1c1,0 3,2 4,2 0,1 1,2 1,3 0,1 0,1 -1,2 -6,2 -18,-2 -22,-5 -2,-2 -5,-5 -2,-6 1,-1 2,-1 3,-1 0,0 0,0 0,0 0,0 -1,0 -1,-1 0,0 0,0 -1,0 -2,-1 -9,2 -1,8l5 3c3,1 3,1 6,2 3,1 11,3 14,1 3,-1 3,-3 2,-5 -1,-1 -2,-2 -3,-2 0,0 0,-1 -1,-1 0,0 1,0 0,0 0,0 0,0 0,0z"/>
   <path class="fil24" d="M82 65c0,0 -1,0 -1,0l3 3c3,2 6,7 0,8 -6,2 -14,0 -19,-1 -5,-2 -14,-6 -18,-11 -2,-3 -1,-5 3,-6 2,0 1,0 2,0 0,-1 0,-1 -1,-1 -1,-1 -5,0 -6,2 -2,3 2,7 4,9l3 2c0,0 0,0 1,0l1 1c0,0 1,0 1,0 2,1 8,4 10,4 4,1 5,2 9,2l3 1c2,0 7,0 8,-1 1,0 3,-1 4,-2 1,-3 -2,-6 -3,-7 -1,-1 -3,-2 -4,-3z"/>
   <path class="fil9" d="M97 42l0 0c0,0 -1,1 -2,1 -1,1 0,0 0,1 -1,0 -2,0 -2,1 -3,2 -2,2 -3,3 -1,1 -1,1 -2,2 0,2 0,4 1,5 1,1 3,2 5,2 -1,0 -1,0 -1,0 0,0 0,0 0,0 -1,0 0,0 -1,0l2 0 1 0c0,1 0,1 0,1 0,0 1,0 1,-1 1,0 0,0 1,0 1,0 0,0 1,0l0 0c-2,0 -5,-1 -7,-2 0,-1 -1,-2 -1,-3 0,-2 2,-5 3,-6 1,-1 1,-1 1,-1l2 -2c1,0 1,0 1,0 5,-3 12,-6 19,-6 3,-1 8,-1 11,1 1,1 2,2 2,3l3 -1c-1,0 -2,-2 -2,-2 0,0 0,-1 -1,-1 -2,-2 -4,-2 -5,-2 -1,0 -12,2 -14,2 -3,1 -5,1 -7,2 -2,1 -4,2 -6,3z"/>
   <path class="fil4" d="M24 83c1,1 6,1 7,1l6 -1c1,0 0,0 0,0l-3 -3c0,-1 0,-1 -1,-1 0,0 -5,0 -6,0 -2,0 -3,0 -5,0 -1,0 -1,0 -1,-1 0,1 2,5 3,5 0,0 0,0 0,0z"/>
   <path class="fil4" d="M5 77c1,1 1,1 1,1l5 2c4,2 6,3 10,3 0,0 1,1 1,0 0,0 0,0 0,0 0,0 0,-1 0,-1 -1,-1 -2,-2 -2,-2 0,0 0,0 0,0 -1,0 -2,0 -3,-1 -3,-1 -5,-2 -8,-3 -2,-2 -4,-3 -5,-6 0,2 1,6 1,7z"/>
   <path class="fil2" d="M71 47c0,1 -3,4 -4,7 0,2 0,3 -1,3 1,1 1,0 1,1l1 0 4 1 1 0c0,-1 0,-2 0,-2 0,-1 0,-2 0,-2 1,-5 3,-7 4,-8 -2,0 -4,0 -6,0z"/>
   <path class="fil21" d="M24 83c0,1 1,2 1,3 1,0 2,2 2,2 0,0 3,0 4,0 1,0 1,0 2,0 1,0 3,-1 4,-1l4 -1c1,0 1,0 1,0l0 0c0,0 0,0 0,0 -1,0 -1,0 -1,-1 -1,0 -1,0 -1,0 -1,-1 -2,-2 -3,-2 0,0 1,0 0,0l-6 1c-1,0 -6,0 -7,-1z"/>
   <path class="fil25" d="M73 69c0,0 0,0 0,1 0,0 0,0 0,0 0,0 0,0 0,0 -1,0 -2,0 -2,0 -1,0 -2,0 -2,0 -2,0 -5,-1 -6,-2 -1,0 -1,0 -1,-1 -1,0 -2,-1 -1,-2 0,0 0,0 0,-1 1,0 1,0 1,0 2,0 5,1 6,1 2,1 3,1 5,3 0,1 0,1 0,1zm-2 -4c-2,0 -3,-1 -5,-1 -1,0 -3,-1 -4,-1 -4,-1 -7,1 -3,4 2,2 5,3 8,4 2,0 8,2 9,0 1,-2 -2,-4 -3,-5 -1,0 -2,-1 -2,-1z"/>
   <path class="fil26" d="M15 64c0,1 1,3 1,3 1,0 2,2 4,3 0,1 0,0 0,1 2,0 7,2 8,1l-1 -2c-2,0 -5,-1 -7,-2 -3,-3 -2,-6 1,-8 0,0 0,0 1,-1 1,0 0,0 1,0 0,-1 0,-1 -1,-2 -1,0 -2,1 -2,1 -3,1 -5,3 -5,6z"/>
   <path class="fil3" d="M129 41c-1,1 -3,2 -3,2l-3 1c0,1 -3,3 -4,3 0,0 -3,2 -3,2 -1,0 0,0 -1,0 0,0 0,0 0,0 -1,1 0,1 -1,1 0,0 -3,2 -4,2 0,0 -2,1 -2,1 -1,0 -2,1 -3,1 0,0 -3,1 -3,1 -1,1 -3,2 -4,2l0 0c0,0 1,0 2,0 0,0 1,0 2,0l1 -1 5 -1c0,-1 4,-2 4,-3 2,0 3,-1 5,-2 1,-1 8,-5 9,-5l2 -2 3 -1c0,-1 1,-1 2,-1 -1,-1 -1,-1 -1,-1l-3 1z"/>
   <path class="fil10" d="M77 47c-1,1 -3,3 -4,8 0,0 0,1 0,2 0,0 0,1 0,2l-1 0 0 0 1 0 5 0c0,-1 0,-1 0,-1 -1,0 -1,0 -1,-1 -1,-3 1,-7 4,-10 0,0 0,0 1,-1l-5 1z"/>
   <path class="fil10" d="M127 72l2 0c-1,-2 1,-3 0,-5 -1,-1 -3,-2 -4,-2 -2,-1 -7,-2 -9,-2l10 8c0,0 1,1 1,1 0,0 0,0 0,0z"/>
   <path class="fil27" d="M44 73l3 2c7,3 16,6 24,8 0,0 0,0 1,1 0,0 0,0 0,0l1 0c1,0 10,0 11,0 -1,-1 -1,0 -2,0l-4 -1c-2,0 -4,0 -6,-1 -5,-1 -11,-3 -16,-5l-7 -3c-1,0 -1,0 -1,0l-2 -1c-1,0 0,0 0,0 -2,-1 -2,-1 -4,-3 -1,0 -1,0 -1,0 0,0 1,1 1,2 1,0 1,1 2,1z"/>
   <path class="fil28" d="M92 64l4 3c1,1 1,0 2,1 2,2 4,4 5,8 0,1 0,2 0,3l4 -2c-1,-4 -5,-7 -8,-10l-3 -3c-1,0 -1,0 -1,0l-3 0z"/>
   <path class="fil29" d="M66 104c8,-1 17,-2 24,-4l0 0c0,0 -1,0 -1,0 -1,0 -1,0 -2,0 0,0 -2,0 -3,0 0,0 -1,0 -1,0 -1,0 -8,-1 -9,-1 0,1 0,1 -1,1l-7 4z"/>
   <path class="fil22" d="M30 66l0 2 1 1 0 0c0,0 0,0 1,0 0,0 0,1 1,1 0,0 0,0 1,1 1,0 1,0 1,0 0,0 0,0 0,0l2 2c1,0 0,0 1,0 0,0 0,0 0,0 0,0 0,0 1,1l0 0c0,0 0,0 0,0 1,0 1,0 1,0 1,1 1,1 1,1 2,1 1,1 2,1 1,1 1,1 2,1l2 1c0,0 1,1 1,0l-7 -6c0,0 0,0 0,0 -1,0 -1,0 -1,0 -1,-1 -1,-1 -2,-2 -1,0 -5,-3 -6,-4 -1,-1 -3,-3 -3,-3 0,1 0,2 1,3l0 0c0,0 0,0 0,0z"/>
   <path class="fil30" d="M46 46l0 0zm-5 -5l4 4c0,1 0,1 1,1 0,1 2,3 2,3l1 0 0 0 0 1c1,0 1,1 2,1 0,-1 0,-1 1,-1 0,1 0,1 0,2 0,0 3,2 3,2 1,0 1,0 1,1 1,0 1,0 2,0 0,0 0,0 0,0 0,1 0,1 0,1l3 2 1 0 0 0c0,-2 0,-1 1,-1 0,-1 0,-1 1,0 0,0 0,0 0,0 0,0 0,1 0,1 1,0 2,0 3,0l0 0c0,-1 0,0 -1,-1 -1,0 -4,-1 -4,-2 -1,1 -1,1 -1,1 0,0 -1,0 -1,0 0,-1 0,-1 1,-1 0,0 -1,0 -1,0l-1 -1c0,0 0,0 0,0l0 1c-1,0 -1,0 -1,-1 0,-1 0,0 0,0 0,0 0,0 0,0 0,0 0,0 0,0 0,-1 -1,-1 -1,-1 -1,-1 -1,-1 -1,-1 0,3 -3,0 -1,0 0,0 0,0 0,0l-1 -1c0,1 0,1 0,1 -2,0 -2,-1 -1,-2l-2 -1c0,0 0,0 0,0l-1 0c0,0 0,-1 0,-1 0,-1 0,-1 -1,-1l0 1c-1,0 -2,-1 -1,-2 0,0 -1,-1 -1,-1l-1 -1 0 0c-1,0 -1,-1 -1,-1 0,-1 0,-1 -1,-1 0,1 -1,1 -1,0 0,0 0,-1 1,-1 -1,-1 -1,-1 -2,-2 0,1 0,2 -1,2z"/>
   <path class="fil31" d="M89 99c-2,1 -2,-2 -1,-1 1,0 1,0 1,1zm-3 -1c0,0 0,0 0,1 -1,0 -1,0 -1,0 0,-1 0,-2 1,-1zm-8 0c0,-1 1,-2 2,-1 0,0 0,1 -2,1zm-4 -1c-2,2 -2,-1 0,-1l0 1zm1 -1l-4 0 0 0c-1,1 0,1 -1,1l0 0c0,0 0,0 0,0l1 0c1,0 1,0 1,0l0 1c1,0 3,0 4,0 1,0 1,0 1,0 1,0 0,0 2,0 0,0 1,0 1,0l0 1 0 -1c1,0 1,0 2,0l0 1c0,0 0,0 0,0 1,0 1,0 1,0 0,0 1,0 1,0 0,0 0,0 2,0 1,0 3,0 4,0 0,-1 2,0 1,1 1,0 2,-1 3,-1l-1 -1c1,0 1,0 2,0l0 1 2 0 0 0 0 -1c-1,0 -1,0 -1,-1 -1,0 -1,0 -2,0 -1,0 -1,0 -1,0l-1 0c0,0 -1,1 -1,1 -1,0 -1,-1 -1,-1l-2 0 0 0c-1,0 -1,0 -1,0 -1,0 -2,0 -2,0 -1,0 -1,0 -2,0l0 0c0,1 -1,1 -1,0 -1,-1 -1,-1 -2,-1l0 0c0,0 0,0 0,0 -1,0 -1,0 -1,0 -1,0 0,0 0,0l-1 0 -1 0 0 0c0,2 -2,2 -2,0z"/>
   <path class="fil32" d="M74 65l-1 0c1,1 1,1 2,1l1 1c1,1 4,4 1,5 -1,1 -2,1 -4,1 -2,0 -1,0 -2,-1 0,0 -1,0 -2,0 -2,0 -4,-1 -6,-2 -1,0 -3,-1 -3,-1 -2,-1 -9,-7 0,-7 -1,-1 -1,-1 -2,-1 -1,0 -2,0 -3,1 -3,1 0,4 2,6 4,3 16,7 22,5 1,-1 1,-1 1,-2 0,-1 -1,-2 -1,-3 -1,0 -3,-2 -4,-2l-1 -1z"/>
   <path class="fil4" d="M6 46c-1,2 -2,6 -3,8 1,0 1,0 1,-1 3,-2 3,-2 6,-3l2 -1 0 0c1,0 1,-3 1,-4l-1 0 -2 0c-1,0 -2,0 -2,0 -1,1 -2,1 -2,1z"/>
   <path class="fil33" d="M83 85c0,0 0,0 1,0 0,1 4,1 4,1 1,0 1,0 2,0l3 0c3,0 7,-1 9,-2 2,-1 4,-3 4,-4 -2,0 -4,1 -5,1 -2,1 -4,2 -6,2 -3,1 -8,2 -12,2z"/>
   <path class="fil4" d="M116 76c0,0 0,0 1,1 1,2 1,3 1,6 1,0 2,-1 4,-1l3 -2c-1,-1 -1,0 -1,-2 -1,-2 -1,-1 -2,-3 0,0 -1,0 0,0 -1,0 -6,1 -6,1z"/>
   <path class="fil34" d="M128 43c0,2 -2,4 -3,5 -3,2 -3,2 -7,4 -4,2 -7,3 -11,4l-3 1c-1,0 -1,0 -1,-1l-1 1 0 0 3 1 1 0 0 -1 0 0c3,0 12,-3 15,-5 0,0 1,-1 1,-1 3,-1 6,-4 7,-6 1,-1 2,-2 2,-3l-3 1z"/>
   <path class="fil2" d="M21 78c0,1 0,1 1,1 2,0 3,0 5,0 1,0 6,0 6,0 0,-1 0,-1 -1,-2 0,0 0,0 -1,-1 -4,0 -9,0 -12,-1 0,0 1,3 2,3z"/>
   <path class="fil35" d="M110 52c1,0 4,-2 4,-2 0,0 -2,0 -3,1 -1,0 -2,0 -3,1 -1,0 -5,0 -7,0 -2,-1 -3,-3 -1,-5 0,0 1,-2 2,-2l2 -1c3,-2 8,-3 13,-3 1,0 4,1 2,4 0,2 -3,3 -3,4 0,0 3,-2 3,-2 1,-1 3,-4 1,-5 0,-1 -1,-1 -2,-1 -5,-1 -11,0 -14,2 -1,1 -2,1 -3,2 -1,1 -5,4 -3,6 2,1 4,2 6,2 1,0 2,0 3,-1 1,0 2,0 3,0z"/>
   <path class="fil28" d="M27 53l0 1 0 1 1 4 0 1 1 2 0 1c0,0 0,0 0,0 0,0 0,0 0,0 0,0 2,2 3,3 1,1 5,4 6,4 1,1 1,1 2,2 0,0 0,0 1,0 -1,0 -1,-1 -2,-1 0,-1 0,-1 -1,-2l-2 -2c-1,0 -2,-2 -3,-2 -3,-3 -6,-7 -4,-11 0,0 0,-1 1,0l-1 -3c-1,0 -1,0 -1,1 0,0 0,0 -1,0 0,0 0,0 0,1z"/>
   <path class="fil19" d="M73 65l-2 0c0,0 1,1 2,1 1,1 4,3 3,5 -1,2 -7,0 -9,0 -3,-1 -6,-2 -8,-4 -4,-3 -1,-5 3,-4 0,-1 -2,-1 -2,-1 -9,0 -2,6 0,7 0,0 2,1 3,1 2,1 4,2 6,2 1,0 2,0 2,0 1,1 0,1 2,1 2,0 3,0 4,-1 3,-1 0,-4 -1,-5l-1 -1c-1,0 -1,0 -2,-1z"/>
   <path class="fil36" d="M106 80c0,1 -2,3 -4,4 -2,1 -6,2 -9,2l-3 0c-1,0 -1,0 -2,0 0,0 -4,0 -4,-1 -1,0 -1,0 -1,0l-2 0c-1,0 0,0 -1,1 1,0 2,0 3,0l2 0c1,1 -1,1 4,1 4,0 7,0 11,-1 2,-1 6,-2 7,-4 1,-1 1,-2 1,-3l-2 1z"/>
   <path class="fil36" d="M73 84l-1 0c0,0 0,0 0,0 -1,-1 -1,-1 -1,-1 -8,-2 -17,-5 -24,-8l-3 -2c0,1 2,2 3,2 2,2 6,4 9,6 5,2 11,3 17,3z"/>
   <path class="fil37" d="M95 64c0,0 0,0 1,0l3 3c3,3 7,6 8,10l3 0c0,-2 -5,-7 -5,-8 -3,-2 -5,-3 -6,-4 0,0 0,0 -1,-1 0,0 0,0 0,0l-3 0z"/>
   <path class="fil38" d="M105 48c0,-1 0,-1 1,-2 1,-1 3,-2 5,-2 2,0 2,0 2,2 1,1 -3,3 -6,3 -1,0 -1,0 -2,-1zm1 2c3,0 10,-2 10,-5 0,-1 -2,-2 -3,-2 -3,0 -6,1 -8,2 -4,3 -2,5 1,5z"/>
   <path class="fil12" d="M32 54c0,1 0,2 1,3l1 3c0,-2 -1,-3 0,-5 3,-3 7,-3 10,-3 1,0 1,-1 2,-1 -1,0 -1,-1 -2,-1 -1,0 -6,0 -7,1 -2,0 -5,1 -5,3z"/>
   <path class="fil12" d="M88 45c-2,1 -4,3 -5,5 -1,2 -1,3 -1,5 0,1 1,1 1,2 0,0 1,1 1,1l3 0c0,-1 0,-1 -1,-2 -2,-2 -1,-5 0,-7 0,-1 0,-1 1,-1 0,-1 2,-2 2,-3l2 -1c0,0 0,0 0,0l-3 1z"/>
   <path class="fil11" d="M131 42c0,1 -1,2 -2,3 -1,2 -4,5 -7,6 0,0 -1,1 -1,1 -3,2 -12,5 -15,5l0 0 1 1 1 0 1 0c0,0 0,0 1,0 4,-1 11,-4 14,-6l1 -1 5 -6c1,-1 3,-3 4,-4l-1 0c-1,0 -2,0 -2,1z"/>
   <path class="fil4" d="M122 75c-1,0 0,0 0,0 1,2 1,1 2,3 0,2 0,1 1,2 1,0 3,-3 4,-3 1,-1 1,-1 2,-2 -1,0 -1,0 -1,-1 -1,0 -1,-1 -1,-1 -1,0 -2,1 -3,1 -2,0 -3,0 -4,1z"/>
   <path class="fil39" d="M78 60c1,-1 2,1 1,1 -1,1 -2,-1 -1,-1zm-2 -1c0,0 0,0 1,0 1,0 0,0 0,0 0,0 0,0 -1,0zm-14 -1l0 0 3 1c0,0 1,0 1,1l2 0 0 0c1,-1 2,0 1,1l1 0c0,-1 0,-1 1,-1 1,0 1,0 0,1 1,0 2,1 3,0 -1,-2 1,-2 1,0 0,1 0,1 1,0 0,0 1,0 1,1 2,0 3,-1 5,-1l0 0 -1 0 0 0c-2,-1 -1,-2 -1,-2 0,-1 0,0 1,0 0,0 0,0 0,-1l0 0 -3 1 -5 0c0,0 0,1 -1,1 0,0 0,-1 0,-1l0 0 0 0 -4 -1c0,1 0,1 -1,1 -1,0 0,0 0,-1 -1,0 -2,0 -3,0 0,0 0,-1 0,-1 0,0 0,0 0,0 0,1 0,1 -1,1 0,0 0,0 0,-1 -1,0 -1,-1 -1,1l0 0z"/>
   <path class="fil28" d="M85 45c-1,1 -1,1 -2,2 0,0 0,0 0,0 -2,3 -5,6 -3,10 0,1 1,1 1,1l1 0 1 0 1 0c0,0 -1,-1 -1,-1 0,-1 -1,-1 -1,-2 0,-2 0,-3 1,-5 1,-2 3,-4 5,-5l-3 0z"/>
   <path class="fil2" d="M99 63c0,1 0,1 1,2l4 3c1,0 1,0 1,0 0,1 0,1 1,1 2,2 4,5 6,7l2 -1c0,0 0,0 -1,-1 0,-1 -1,-1 -2,-2l-5 -5c0,0 0,0 -1,-1l-2 -2c-1,0 -1,0 -1,0 -1,0 -1,-1 -1,-1l-2 0z"/>
   <path class="fil40" d="M106 50c-3,0 -5,-2 -1,-5 2,-1 5,-2 8,-2 1,0 3,1 3,2 0,3 -7,5 -10,5zm12 -6c0,-4 -9,-1 -12,0 0,0 -1,1 -2,1 0,0 0,0 -1,0 -1,1 -3,4 -1,5 1,1 5,1 6,0 1,0 2,0 3,0 1,-1 7,-3 7,-6z"/>
   <path class="fil39" d="M64 97l0 -1c1,0 1,0 2,0l0 1c-1,0 -1,0 -1,0 -1,0 -1,0 -1,0zm3 1c0,-1 2,-1 1,1l2 0c-1,-1 1,-2 1,-1 0,1 0,1 0,1l-1 0c0,0 0,0 0,0l2 0c1,-1 2,-1 2,0l0 0c1,0 8,1 9,1l0 -1c0,0 0,0 -1,0 0,0 0,0 0,0l-1 0c-1,0 0,0 -1,0l0 -1c0,0 -1,0 -1,0 -2,0 -1,0 -2,0 0,1 0,1 0,1 -1,0 -1,0 -1,-1 -1,0 -3,0 -4,0l0 -1c0,0 0,0 -1,0l-1 0c0,0 0,0 0,0l0 0 -1 0 0 -1 0 0 -1 0 0 0c-1,0 -1,0 -1,-1l-3 0c0,1 -1,1 -1,0l0 0 -1 0c-1,0 0,0 -1,0 0,1 0,0 -1,0l0 -1c0,0 -1,0 -1,0 -1,0 -1,0 -2,0 1,0 4,2 5,2 1,1 3,2 5,2z"/>
   <path class="fil22" d="M82 46c-1,1 -1,1 -1,1 -3,3 -5,7 -4,10 0,1 0,1 1,1 0,0 0,0 0,1l3 -1c0,0 -1,0 -1,-1 -2,-4 1,-7 3,-10 0,0 0,0 0,0 1,-1 1,-1 2,-2l-3 1z"/>
   <path class="fil36" d="M31 47l-1 1c0,0 0,0 0,0l1 3c0,0 1,-1 2,-1 3,-1 8,-2 10,-1l-1 -3c-1,1 -6,1 -8,1 -1,0 -2,0 -3,0 0,1 0,1 0,0z"/>
   <path class="fil41" d="M118 44c0,3 -6,5 -7,6 -1,0 -2,0 -3,0 -1,1 -5,1 -6,0 -2,-1 0,-4 1,-5 1,0 1,0 1,0 1,0 2,-1 2,-1 3,-1 12,-4 12,0zm-7 -2c-4,1 -10,3 -11,6 -2,6 12,4 17,-1 4,-5 -1,-6 -6,-5z"/>
   <path class="fil26" d="M111 42c5,-1 10,0 6,5 -5,5 -19,7 -17,1 1,-3 7,-5 11,-6zm3 8c1,0 0,0 1,-1 0,0 0,0 0,0 1,0 0,0 1,0 0,-1 3,-2 3,-4 2,-3 -1,-4 -2,-4 -5,0 -10,1 -13,3l-2 1c-1,0 -2,2 -2,2 -2,2 -1,4 1,5 2,0 6,0 7,0 1,-1 2,-1 3,-1 1,-1 3,-1 3,-1z"/>
   <path class="fil42" d="M26 10c0,1 1,1 2,1l2 2c0,1 1,1 1,1l0 1c1,0 1,0 1,1 0,-1 1,-1 1,-2 0,0 1,-1 1,-1 0,-1 -3,-4 -4,-4l-1 -2c-1,0 0,1 0,0l-1 0 0 1c-1,0 -1,0 -1,1 0,0 -1,1 -1,1z"/>
   <path class="fil8" d="M94 43c-1,0 -1,1 -2,1l-4 4c0,0 0,0 0,1 -2,1 -3,3 -1,5 0,2 2,3 3,3 0,0 0,0 0,0 0,0 0,0 0,1 1,-1 1,-1 2,-1 1,0 0,0 1,0 0,0 0,0 0,0 0,0 0,0 1,0 -2,0 -4,-1 -5,-2 -1,-1 -1,-3 -1,-5 1,-1 1,-1 2,-2 1,-1 0,-1 3,-3 0,-1 1,-1 2,-1 0,-1 -1,0 0,-1 1,0 2,-1 2,-1l0 0 -3 1z"/>
   <path class="fil14" d="M108 55c0,0 0,0 0,0 1,0 2,0 2,-1 1,0 1,0 2,0l2 -1c1,0 4,-1 4,-2 1,0 2,-1 3,-1l0 -1c0,0 0,0 0,0l1 -1c1,0 1,0 1,0 1,-1 1,-1 1,-1 1,-1 1,-2 2,-2 0,0 0,0 0,0 -1,0 -8,4 -9,5 -2,1 -3,2 -5,2 0,1 -4,2 -4,3z"/>
   <path class="fil27" d="M36 67c-1,-2 -2,-3 -3,-6 -1,-1 -1,-3 -2,-4 0,-1 -1,-3 -1,-3 -1,-1 -1,0 -1,0 -2,4 1,8 4,11 1,0 2,2 3,2z"/>
   <path class="fil24" d="M126 45c0,0 0,0 0,0 -1,0 -1,1 -2,2 0,0 0,0 -1,1 0,0 0,0 -1,0l-1 1c0,0 0,0 0,0l0 1c-1,0 -2,1 -3,1 0,1 -3,2 -4,2l-2 1c-1,0 -1,0 -2,0 0,1 -1,1 -2,1 0,0 0,0 0,0l-5 1c0,1 0,1 1,1l3 -1c4,-1 7,-2 11,-4 4,-2 4,-2 7,-4 1,-1 3,-3 3,-5l-2 2z"/>
   <path class="fil43" d="M25 24l0 0c1,0 3,-1 4,1 3,3 1,10 -2,10l1 3c1,-1 1,-1 3,-3 1,-1 0,-1 1,-2l0 -1c-1,-3 -2,-6 -2,-9 0,0 0,-1 0,0 0,0 0,0 -1,0 -1,-1 -1,0 -1,-1 -1,0 -2,1 -3,1l0 1z"/>
   <path class="fil42" d="M21 15c1,1 2,2 3,3 0,1 1,2 2,3 1,0 2,-2 3,-2 0,-1 0,0 -1,-1 -1,-1 -1,-1 -2,-2l-1 -2c0,0 0,0 0,0 0,0 0,0 0,0l0 -1c-1,-2 0,-1 -1,-1 0,0 -1,1 -1,1 0,1 0,1 -1,1 0,0 0,0 -1,1z"/>
   <path class="fil2" d="M14 52c0,1 0,4 0,4l0 0c2,-2 5,-3 7,-3l0 -2c-1,0 -2,-1 -2,-1 -1,0 -4,1 -5,2z"/>
   <path class="fil44" d="M32 46c0,0 3,-1 4,-1 1,0 2,0 2,0 1,0 2,0 3,0 0,0 -1,-1 -2,-2 0,-1 -1,-1 -1,-2 -1,0 -3,1 -4,2 0,0 -2,2 -2,3z"/>
   <path class="fil45" d="M91 44c0,0 0,0 0,0l-2 1c0,1 -2,2 -2,3 -1,0 -1,0 -1,1 -1,2 -2,5 0,7 1,1 1,1 1,2l3 0c0,-1 0,-1 0,-1 0,0 0,0 0,0 -1,0 -3,-1 -3,-3 -2,-2 -1,-4 1,-5 0,-1 0,-1 0,-1l4 -4c1,0 1,-1 2,-1l-3 1z"/>
   <path class="fil37" d="M17 74c0,0 0,0 0,-1l-5 -3 -3 -4c0,-1 0,-1 0,-2 0,-3 1,-2 1,-4 1,-1 2,-2 2,-3 0,1 1,1 1,1l0 -2c-1,1 -3,2 -3,3 -1,1 -1,1 -1,2l0 0c-1,2 -1,5 0,6 1,3 2,3 3,5 0,0 0,0 0,0 1,0 1,0 1,0 0,0 3,2 4,2 0,0 0,0 0,0z"/>
   <path class="fil33" d="M31 51c0,1 0,2 1,3 0,-2 3,-3 5,-3 1,-1 6,-1 7,-1 0,-1 0,-1 -1,-1 -2,-1 -7,0 -10,1 -1,0 -2,1 -2,1z"/>
   <path class="fil46" d="M17 73c0,0 0,0 0,-1 -1,0 -1,0 -1,-1l0 1c-1,-1 -2,-1 -3,-3 0,0 -1,-1 -1,-2l-1 0c0,-2 0,-3 0,-5l1 -2c0,0 0,0 0,0l1 -1 0 -1c0,0 -1,0 -1,-1 0,1 -1,2 -2,3 0,2 -1,1 -1,4 0,1 0,1 0,2l3 4 5 3z"/>
   <path class="fil3" d="M125 51c0,0 -2,2 -2,3 0,0 0,0 0,0l1 0c0,0 -1,1 0,0 0,0 0,0 0,0 1,0 2,-1 3,-2 0,0 0,-1 0,-1 1,-2 2,-3 3,-4 1,-1 3,-2 3,-3l1 -2 0 -1c-1,1 -3,3 -4,4l-5 6z"/>
   <path class="fil35" d="M27 70l0 -1 -4 -1 -2 -1c0,0 0,-1 -1,-1 -1,-2 1,-5 3,-6 0,0 0,0 0,0 0,0 0,-1 0,-1 0,0 0,0 0,0 -1,0 0,0 -1,0 -1,1 -1,1 -1,1 -3,2 -4,5 -1,8 2,1 5,2 7,2z"/>
   <path class="fil32" d="M69 67l0 0c1,0 1,0 2,0 0,1 0,1 0,2 0,0 0,0 -1,0 -1,0 -3,0 -4,0 -2,-1 -6,-3 -3,-4 2,-1 6,1 7,2 -1,0 0,0 -1,0zm4 2c0,0 0,0 0,-1 -2,-2 -3,-2 -5,-3 -1,0 -4,-1 -6,-1 0,0 0,0 -1,0 0,1 0,1 0,1 -1,1 0,2 1,2 0,1 0,1 1,1 1,1 4,2 6,2 0,0 1,0 2,0 0,0 1,0 2,0 0,0 0,0 0,0 0,0 0,0 0,0 0,-1 0,-1 0,-1z"/>
   <path class="fil31" d="M26 55l0 0 0 2c0,0 0,0 0,0l1 0c0,1 0,1 -1,2 1,1 1,1 0,2 1,2 1,3 2,5 0,-1 0,-1 1,-1 0,0 0,0 0,1l-1 0c1,2 2,4 3,5 0,1 0,1 0,1 0,0 1,1 1,1l0 -1 1 1c-1,1 0,0 -1,0l3 3c-1,0 -1,-1 -1,-2 -1,0 -1,-1 -2,-2 0,0 -1,-2 -1,-3l0 1c-1,0 -1,0 -1,-1 0,0 0,0 1,0l-1 -1c-1,0 -1,-1 -1,-1l1 -1c0,0 0,0 0,0l0 0c-1,-1 -1,-2 -1,-3 0,0 0,0 0,0 0,0 0,0 0,0l-1 0c-1,0 -1,-1 0,-1 0,0 0,0 1,0l-1 -2c0,1 0,1 -1,0 0,0 0,0 0,-1 1,0 1,0 1,0l-1 -4c0,0 0,0 -1,0z"/>
   <path class="fil46" d="M91 64l3 2c1,1 1,1 1,1 1,1 0,0 0,0 1,1 0,1 1,1 2,1 4,4 5,6 1,2 1,5 0,6l2 -1c0,-1 0,-2 0,-3 -1,-4 -3,-6 -5,-8 -1,-1 -1,0 -2,-1l-4 -3 -1 0z"/>
   <path class="fil19" d="M27 69l-1 -1 -2 -1c-3,-2 -2,-5 0,-5l0 -1c0,0 0,0 -1,-1 -2,1 -4,4 -3,6 1,0 1,1 1,1l2 1 4 1z"/>
   <path class="fil47" d="M93 94c0,1 0,1 0,1 -1,0 -1,0 -2,0l0 0 -1 0c1,1 0,1 -1,1l0 -1 -3 0c0,1 -1,1 -2,0l0 0c-1,0 -1,0 -2,0 0,0 -1,1 -1,1 -1,0 -2,0 -3,0l1 0c0,0 -1,0 0,0 0,0 0,0 1,0 0,0 0,0 0,0l0 0c1,0 1,0 2,1 0,-1 1,-1 1,-1l0 1 0 0c1,0 1,0 2,0 0,0 1,0 2,0 0,-1 0,-1 0,-1 1,-1 1,0 1,1l2 0c0,-1 1,-1 1,-1 0,0 0,0 1,1l1 0 0 -1c0,0 1,0 1,0 1,0 2,-1 3,0 -1,-1 -2,-1 -2,-2l-2 0z"/>
   <path class="fil22" d="M98 64c0,0 0,0 0,0 1,1 1,1 1,1 1,1 3,2 6,4 0,1 5,6 5,8l2 -1c-2,-2 -4,-5 -6,-7 -1,0 -1,0 -1,-1 0,0 0,0 -1,0l-4 -3c-1,-1 -1,-1 -1,-2l-1 1z"/>
   <path class="fil48" d="M24 6c0,0 0,1 -1,1 0,0 -1,-1 1,-1zm-1 -2c0,2 -2,2 -1,0l1 0zm-1 -1l0 1c-1,0 -1,0 -1,0 0,0 0,0 0,0l-1 0c1,1 0,1 0,1l1 1c1,0 1,1 0,1 0,0 0,0 0,0 0,0 0,0 0,1 1,0 1,-1 2,0 0,0 0,0 -1,1 0,0 -1,0 0,0 0,0 0,1 0,1 0,1 0,0 0,1 1,0 0,0 1,0 0,0 0,-1 0,-1 0,0 1,0 1,-1 -1,0 -1,0 -1,-1 1,0 1,0 1,0 0,0 0,0 0,1 1,-1 1,-1 1,-1 0,0 0,-1 0,-1 0,-1 -1,-1 -1,-2 -1,0 -1,-1 1,-1 -1,0 -1,-1 -1,-1l1 0c-1,-1 -3,0 -3,0z"/>
   <path class="fil49" d="M25 24l1 2c1,0 1,-1 2,0 2,2 2,4 1,5 0,1 -1,2 -2,2l0 2c3,0 5,-7 2,-10 -1,-2 -3,-1 -4,-1z"/>
   <path class="fil22" d="M124 54c0,0 0,0 0,0 -1,1 0,0 0,0 0,1 0,0 -1,1l-2 1c-1,0 -6,3 -8,3 1,0 1,0 1,0 0,0 1,0 2,0 0,0 0,0 0,0 0,0 1,-1 3,-1 3,-1 6,-3 8,-4 0,0 1,-1 1,-1 1,-1 1,-1 2,-2 -1,0 -4,2 -5,3 -1,0 0,0 -1,0z"/>
   <path class="fil47" d="M105 59c0,0 0,0 0,0 0,0 -1,0 -1,0 0,-1 0,0 0,0 0,1 0,1 -1,1l0 -1c-1,0 0,0 -1,0 0,0 -1,0 -1,0 0,1 0,1 -1,1l0 1 1 0c0,-2 1,-1 1,-1 0,0 0,0 0,0 0,0 1,0 1,0l0 0c1,0 2,0 3,0 0,0 2,0 3,0 0,-1 0,-1 1,0l1 0c0,-1 0,-1 1,-1 0,0 0,0 0,1l2 0c0,0 0,0 1,0l0 -1 1 1 0 0 0 0 1 0 0 0 -1 -1c-1,0 -2,0 -2,0l-3 -1 -2 0 -1 0 0 1c0,0 0,0 0,0 -1,0 -1,0 -1,-1l-1 -1 0 1 0 0c0,1 0,1 -1,1z"/>
   <path class="fil49" d="M32 25c1,-1 0,0 1,-1 0,0 0,0 0,-1 0,0 2,0 3,1 0,1 0,2 0,2 -1,1 -1,1 -2,1l1 2 0 0c1,0 0,1 2,-1 1,0 0,-1 1,-1 0,-1 -1,-1 -1,-2 0,-1 -1,-2 -1,-3 -1,0 -1,0 -2,0 0,0 -1,0 -1,0 0,-1 0,0 -1,-1 0,1 0,1 0,2 0,1 0,1 0,2z"/>
   <path class="fil50" d="M12 30c0,0 0,1 0,0 1,1 1,1 1,2 1,0 1,1 2,1l0 -2c0,0 0,0 -1,-1 0,0 0,0 0,0 -1,-1 -1,-1 -1,-2 2,0 1,0 2,1 1,-1 1,-3 1,-4 -2,0 -2,0 -4,0 0,2 0,3 0,5z"/>
   <path class="fil4" d="M14 52c1,-1 4,-2 5,-2 -2,-1 -3,-4 -5,-5l0 7z"/>
   <path class="fil51" d="M109 58l2 0c0,0 0,0 0,0l12 -4c0,-1 2,-3 2,-3l-1 1c-3,2 -10,5 -14,6 -1,0 -1,0 -1,0z"/>
   <path class="fil27" d="M19 75c3,1 8,1 12,1 0,0 0,-1 -1,-1 0,0 0,0 -1,0 -4,0 -7,-1 -11,-2l1 2z"/>
   <path class="fil52" d="M29 44c0,0 1,1 1,2l0 -1c1,0 4,-4 5,-5 1,-1 1,-1 1,-1 0,-1 -1,-1 -1,-2 0,0 0,1 -1,1l-3 4c-1,1 -1,1 -2,2z"/>
   <path class="fil28" d="M111 58l3 1c0,0 0,0 -1,0 2,0 7,-3 8,-3l2 -1c1,-1 1,0 1,-1l-1 0c0,0 0,0 0,0l-12 4c0,0 0,0 0,0z"/>
   <path class="fil53" d="M88 58l0 0c1,3 -2,2 0,0zm3 0c0,0 0,0 -1,1 0,0 -1,-1 0,-1l1 0zm-1 0l-3 0 -3 0 -1 0 0 0 0 1c1,0 1,0 1,0 1,1 1,1 1,2 0,0 0,0 0,0l1 -1c0,-1 1,-1 1,0l2 0c0,0 0,0 0,0 1,0 1,0 1,0 0,0 0,0 0,0 0,-1 1,-1 2,-1 0,-1 0,-2 1,-1l0 1c0,0 0,0 1,0 0,-1 0,0 0,-1 -1,0 0,0 0,-1l-2 0c-1,0 -1,0 -2,1z"/>
   <path class="fil50" d="M26 26l0 2 1 0c1,1 1,2 0,3 -1,-1 1,0 0,-1l0 3c1,0 2,-1 2,-2 1,-1 1,-3 -1,-5 -1,-1 -1,0 -2,0z"/>
   <path class="fil54" d="M30 46c0,1 0,1 0,2 0,0 0,0 0,0l1 -1c0,0 0,-1 1,-1 0,-1 2,-3 2,-3 1,-1 3,-2 4,-2 -1,-1 -1,-2 -2,-2 0,0 0,0 -1,1 -1,1 -4,5 -5,5l0 1z"/>
   <path class="fil55" d="M17 70l1 0c3,3 7,3 11,3l-1 -1c-1,1 -6,-1 -8,-1 0,-1 0,0 0,-1 -2,-1 -3,-3 -4,-3l1 3z"/>
   <path class="fil56" d="M12 20c-1,0 -2,0 -1,-1 0,0 1,0 1,1zm1 -5l-1 1 0 0c0,0 0,0 0,0 -1,0 -1,1 -1,2 0,0 0,0 -1,1 0,1 1,2 1,3 0,-1 0,-1 1,-1 0,1 0,1 0,1 0,0 1,1 1,1 1,-1 1,0 1,-1 0,0 0,0 0,-1l1 0c0,0 0,0 0,0l0 0c-1,-1 -1,-1 -1,-1 0,0 0,0 0,0 0,0 0,0 0,0 -1,1 0,1 0,0 -1,0 -1,0 -1,0 0,1 0,0 0,1 0,0 0,0 0,0l0 0c0,0 0,0 0,0 0,0 0,0 0,0 0,0 0,0 -1,0 0,0 0,-1 0,-3 0,0 0,0 0,0 -1,-1 -1,-1 0,-1 1,0 0,0 1,0 0,0 0,0 0,-1 0,-1 1,-1 1,0l1 0c0,0 0,0 0,0 0,0 0,0 0,1 0,0 0,0 0,0 1,-1 0,-1 1,0l0 -1 0 0 -2 -1c-1,0 -1,0 -1,0 -1,0 -1,-1 0,0z"/>
   <path class="fil3" d="M97 100l0 1 -1 0c0,0 -2,1 -2,2 -2,1 -6,4 -6,7l3 -3c2,-2 5,-4 7,-7l-1 0c0,0 1,0 0,0 0,0 0,0 0,0z"/>
   <path class="fil11" d="M16 71c0,0 0,-1 0,-1l-1 0c0,0 0,0 -1,-1 -2,-2 -3,-5 -2,-7 1,-2 1,-1 1,-1l0 -2 -1 1c0,0 0,0 0,0l-1 2c0,2 0,3 0,5l1 0c0,1 1,2 1,2 1,2 2,2 3,3l0 -1z"/>
   <path class="fil10" d="M116 59l1 1 0 0 2 0c1,0 3,-2 4,-3 1,0 1,-1 2,-1 1,-1 1,-1 2,-2 -2,1 -5,3 -8,4 -2,0 -3,1 -3,1 0,0 0,0 0,0z"/>
   <path class="fil24" d="M16 70c-1,-1 -2,-3 -2,-4 0,-2 -1,-4 -1,-5 0,0 0,-1 -1,1 -1,2 0,5 2,7 1,1 1,1 1,1l1 0z"/>
   <path class="fil57" d="M24 12c1,0 0,-1 1,1l0 1c0,0 0,0 0,0 0,0 0,0 0,0l1 2c1,1 1,1 2,2 1,1 1,0 1,1l0 -1c0,0 -2,-2 -3,-4l0 -1c0,-1 0,-1 1,-1 1,0 3,2 4,3 0,0 0,1 1,1 0,0 0,0 0,0 0,-1 0,-1 -1,-1l0 -1c0,0 -1,0 -1,-1l-2 -2c-1,0 -2,0 -2,-1 0,1 -1,1 -1,1 0,0 0,1 -1,1z"/>
   <path class="fil24" d="M18 72c0,0 0,0 1,0 0,1 1,1 1,1 4,1 6,1 10,1l-1 -1c-4,0 -8,0 -11,-3l-1 0 1 2z"/>
   <path class="fil55" d="M26 68c0,-1 -1,-2 -1,-3l-1 -3c0,-1 0,-1 0,-1l0 1c-2,0 -3,3 0,5l2 1z"/>
   <path class="fil22" d="M32 46c-1,0 -1,1 -1,1 0,1 0,1 0,0 1,0 2,0 3,0 2,0 7,0 8,-1 -1,0 -1,0 -1,-1 -1,0 -2,0 -3,0 0,0 -1,0 -2,0 -1,0 -4,1 -4,1z"/>
   <path class="fil40" d="M113 46c-1,1 0,0 -2,1l-1 1c-1,0 -4,0 -4,-1 1,-1 2,-2 3,-2 1,0 3,0 3,0 1,1 0,1 1,1zm-8 2c1,1 1,1 2,1 3,0 7,-2 6,-3 0,-2 0,-2 -2,-2 -2,0 -4,1 -5,2 -1,1 -1,1 -1,2z"/>
   <path class="fil58" d="M95 58l-1 0c0,1 0,0 0,1 -1,0 -1,0 -1,0l0 0c-1,0 -1,0 -1,0 -1,0 -2,0 -2,1 0,0 0,0 0,0 0,0 0,0 -1,0 0,0 0,0 0,0 1,0 1,0 1,1l3 -1c0,0 0,0 1,-1 0,1 0,0 0,1l1 -1c0,0 1,0 1,0l1 0 0 0c0,-1 1,-2 2,-1l0 0 1 0c0,0 0,0 0,-1l1 0 1 0 0 0c-1,0 -2,0 -2,0 -1,0 -2,0 -2,0 -1,0 0,0 -1,0 -1,0 0,0 -1,0 0,1 -1,1 -1,1z"/>
   <path class="fil59" d="M21 10c-1,0 -1,-1 0,-1 0,0 1,0 1,0 0,1 -1,1 -1,1zm-2 -3c0,0 0,0 0,-1 1,0 1,2 0,1zm-3 0c1,1 1,1 1,1l0 0 0 0c0,-1 1,-1 1,1l1 -1c0,0 0,0 0,0 1,0 2,1 0,1 1,1 1,0 1,1 0,0 0,0 0,0 1,1 1,0 1,1 0,0 0,0 0,0 0,1 0,1 0,1l0 0c0,0 0,0 1,0 0,0 0,-1 0,-1 0,0 0,0 0,0 0,-1 0,0 0,-1 0,0 0,-1 0,-1 -1,0 0,0 0,0 -1,-1 0,-1 -1,-1 0,-1 0,-1 0,-1 0,0 0,0 0,0 0,0 0,-1 0,-1l-1 -1 0 0c-1,2 -2,1 -3,2l-1 0z"/>
   <path class="fil60" d="M101 57c0,1 0,1 -1,1l0 0 -1 0c0,1 0,1 -1,1 0,0 0,0 -1,0l-1 0 1 0 0 1c1,0 1,-1 2,0 0,0 0,0 0,0 0,-1 1,-1 1,0 1,0 1,0 1,-1 0,0 1,0 1,0 1,0 0,0 1,0 0,-1 0,-1 1,0 0,0 0,-1 0,0 0,0 1,0 1,0 0,0 0,0 0,0 0,-1 0,-1 0,-1 0,0 0,0 0,0l-3 -1 -1 0z"/>
   <path class="fil16" d="M69 67l1 0c2,2 -3,2 -4,1 0,0 -1,0 -2,-1 0,0 0,0 0,0 0,0 -1,-1 0,-1 0,0 1,0 2,0 1,0 2,0 3,1 1,0 0,0 1,0 -1,-1 -5,-3 -7,-2 -3,1 1,3 3,4 1,0 3,0 4,0 1,0 1,0 1,0 0,-1 0,-1 0,-2 -1,0 -1,0 -2,0z"/>
   <path class="fil61" d="M18 9c0,0 -1,0 -1,-1l0 0 0 0 -1 0c0,0 0,0 0,0l-2 2 0 0c1,0 1,0 1,0 0,0 0,-1 1,-1 0,1 0,0 0,1 1,0 1,0 1,0 1,0 0,0 1,0l0 0c1,0 1,0 1,1l-1 0c1,0 1,0 1,1 1,0 1,0 1,1 0,0 0,0 1,0 0,-1 0,-1 0,-1l0 0c-1,0 -1,0 -1,0 0,-1 0,-1 1,-1 0,-1 0,0 -1,-1 0,0 0,0 0,0 0,-1 0,0 -1,-1 0,0 0,0 0,-1 0,0 0,0 0,0l-1 1z"/>
   <path class="fil62" d="M25 56c1,1 1,1 0,1 0,1 0,1 1,2 0,1 0,2 0,2 1,-1 1,-1 0,-2 -1,0 -1,-2 0,-2 0,0 0,0 0,0l0 -2 0 0c0,-1 0,-2 1,-1l0 -1 0 -1c-2,1 -2,-2 0,-1 0,0 -1,-1 -1,-1 0,0 0,0 1,0l0 -1 0 1 -1 0 -1 -1c0,1 0,1 0,2 0,1 0,2 0,3 0,1 0,1 0,1 0,0 0,0 0,0 1,1 0,0 0,1z"/>
   <path class="fil63" d="M17 20c-2,0 -1,-1 -1,-1 1,0 1,0 1,1zm-1 -4l0 1c-1,-1 0,-1 -1,0 1,0 1,0 1,1l-1 -1c0,2 0,2 0,2 0,0 0,0 0,1 0,0 0,0 0,0 0,0 0,0 0,1l0 0c0,0 0,0 0,0l-1 0c1,0 1,1 0,1 0,0 0,0 0,0 0,1 0,0 -1,1 1,0 2,0 2,0 0,-1 0,-1 0,-1 1,0 1,0 1,0 0,0 0,0 0,0 0,0 0,0 0,0l0 -1 0 0c0,-1 0,-1 1,-1 0,0 1,-2 0,-2 0,-1 0,-1 1,-1l0 -1 0 0 -1 0c0,0 0,0 -1,0z"/>
   <path class="fil35" d="M108 47c0,-2 3,-2 3,-1 0,1 -2,2 -3,1zm5 -1c-1,0 0,0 -1,-1 0,0 -2,0 -3,0 -1,0 -2,1 -3,2 0,1 3,1 4,1l1 -1c2,-1 1,0 2,-1z"/>
   <path class="fil53" d="M94 60c1,1 1,1 0,1 -1,0 -1,0 -1,-1l-3 1c0,1 0,1 -1,0l-1 1c0,0 0,0 0,0l3 0c1,-2 1,0 2,0 2,0 4,-1 6,-1 0,0 0,-1 0,-1 0,0 0,0 0,0 -1,-1 -1,0 -2,0l0 -1 -1 1 0 0c-1,0 -1,0 -1,-1l-1 1z"/>
   <path class="fil64" d="M28 38c0,0 0,1 1,1 1,0 1,-1 2,-2 1,0 1,-1 1,-1 0,-1 1,-1 1,-2l-1 -2 0 1c-1,1 0,1 -1,2 -2,2 -2,2 -3,3z"/>
   <path class="fil65" d="M15 10c0,0 0,0 -1,0 0,1 0,1 -1,1 0,0 -1,1 -1,1l1 1c0,-1 0,-1 1,-1 0,0 0,0 0,0 0,0 0,0 0,0 0,-1 1,-1 1,0l1 -1 0 1 0 -1c1,0 1,0 1,1l-1 0c1,0 1,0 1,0 1,0 0,0 1,0 0,0 0,0 0,0 1,0 0,0 0,1l0 0c0,0 1,0 0,1 0,0 0,0 0,0 1,0 1,0 2,-1 -1,0 -1,0 -1,0l0 -1c0,-1 0,-1 -1,-1l0 -1c-1,0 0,0 -1,0 0,0 0,0 -1,0 0,0 0,0 -1,0z"/>
   <path class="fil52" d="M8 41c1,0 3,3 4,3 0,1 1,0 0,1l1 0c0,-1 0,-1 0,-2 0,0 0,0 0,0 -1,0 -1,-1 -1,-1l-2 -2c-1,-1 -1,-1 -1,-1l-1 2z"/>
   <path class="fil11" d="M14 58c0,1 0,0 0,1l0 0c1,-1 1,-1 2,-1 0,-1 1,-1 2,-1 1,-1 2,-2 4,-2l0 -1c-1,0 -2,0 -3,1 0,0 -4,1 -5,2 0,0 0,0 0,1z"/>
   <path class="fil66" d="M14 56c0,1 0,2 0,2 0,-1 0,-1 0,-1 1,-1 5,-2 5,-2 1,-1 2,-1 3,-1l-1 -1c-2,0 -5,1 -7,3l0 0z"/>
   <path class="fil67" d="M29 42c0,0 0,1 0,2 1,-1 1,-1 2,-2l3 -4c1,0 1,-1 1,-1 0,0 0,0 0,-1 -1,0 -1,0 -1,0l-1 2c-2,3 -3,3 -4,4z"/>
   <path class="fil58" d="M87 60l0 0c0,2 -1,2 -1,1l0 -1 -1 1c0,0 0,0 0,0 -1,0 -1,0 -1,0l-2 0 0 0c1,1 0,0 1,1l1 0c0,0 1,0 2,0 1,0 1,0 2,0 0,0 0,0 0,0l1 -1c0,0 0,0 0,-1 0,0 0,0 0,0l0 0 -2 0z"/>
   <path class="fil11" d="M18 73c4,1 7,2 11,2 1,0 1,0 1,0l0 -1c-4,0 -6,0 -10,-1 0,0 -1,0 -1,-1 -1,0 -1,0 -1,0l0 1z"/>
   <path class="fil68" d="M14 19c0,0 0,0 -1,-1 0,0 1,0 1,0 0,-1 1,0 0,1zm0 -3c0,1 0,1 0,1 -1,-1 0,0 -1,-1 0,1 0,1 0,1 -1,1 -1,1 -1,1 0,2 0,3 0,3 1,0 1,0 1,0 0,0 0,0 0,0 0,0 0,0 0,0l0 0 -1 0c0,-1 0,-1 1,-1 0,0 0,0 1,0 0,1 -1,1 0,0 0,0 0,0 0,0 0,0 0,0 0,0l1 0c0,-1 0,-1 0,-1 0,0 0,0 0,-2 0,0 0,0 0,0 0,-1 0,-1 0,-1 0,0 0,0 0,0l-1 0z"/>
   <path class="fil14" d="M65 66c2,-1 5,2 4,2 -1,0 -2,0 -3,0 -1,-1 -1,-1 -1,-2zm4 1l0 0c-1,-1 -2,-1 -3,-1 -1,0 -2,0 -2,0 -1,0 0,1 0,1 0,0 0,0 0,0 1,1 2,1 2,1 1,1 6,1 4,-1l-1 0z"/>
   <path class="fil69" d="M29 18c0,0 0,0 1,0 0,-1 0,0 -1,-1 0,0 0,0 -1,-1 0,0 -1,-2 -1,-3 1,0 3,2 4,3 0,0 0,0 0,1 1,-1 0,0 1,-1 -1,0 -1,-1 -1,-1 -1,-1 -3,-3 -4,-3 -1,0 -1,0 -1,1l0 1c1,2 3,4 3,4z"/>
   <path class="fil49" d="M25 40l1 -1 -1 -2 1 0c0,-2 0,-3 -1,-5 0,-2 -1,-4 -1,-6 0,0 -1,1 -1,1 1,4 3,8 2,13z"/>
   <path class="fil50" d="M16 34c1,0 1,0 1,0 1,1 1,0 1,1 0,0 1,-3 1,-4l-1 -1c0,0 0,-1 -1,-1l-1 5z"/>
   <path class="fil12" d="M127 51c1,0 1,0 2,-1l2 -2c0,0 0,0 1,-1 0,0 1,-2 1,-3 0,1 -2,2 -3,3 -1,1 -2,2 -3,4z"/>
   <path class="fil32" d="M15 62c0,1 0,2 0,2 0,0 0,0 0,0 0,-3 2,-5 5,-6 0,0 1,-1 2,-1l0 -1c-1,1 -3,2 -4,2 -1,1 -2,1 -2,2 -1,1 -1,1 -1,2z"/>
   <path class="fil52" d="M14 45c2,1 3,4 5,5 0,0 1,1 2,1l-1 -2 -1 -1c0,0 0,0 0,0 -1,0 -1,-1 -2,-1 0,-1 -2,-3 -3,-3l0 1z"/>
   <path class="fil42" d="M29 41l0 1c1,-1 2,-1 4,-4l1 -2c0,0 0,0 1,0 -1,0 -1,-1 -1,-1 -1,1 -1,1 -1,2 -2,3 -4,3 -4,4z"/>
   <path class="fil28" d="M127 51c0,0 0,1 0,1 -1,1 -2,2 -3,2 1,0 0,0 1,0 1,-1 4,-3 5,-3 0,0 0,0 0,-1 1,-1 2,-2 2,-3 -1,1 -1,1 -1,1l-2 2c-1,1 -1,1 -2,1z"/>
   <path class="fil70" d="M29 39c0,1 0,1 0,2 0,-1 2,-1 4,-4 0,-1 0,-1 1,-2 0,0 -1,-1 -1,-1 0,1 -1,1 -1,2 0,0 0,1 -1,1 -1,1 -1,2 -2,2z"/>
   <path class="fil71" d="M25 48c-1,0 -1,-2 0,-1 0,1 0,1 0,1zm-1 -4c0,1 0,2 -1,3 2,3 1,1 2,2l1 1c0,-1 0,-1 0,-2l0 -2c-1,0 -1,-1 0,-1l0 0 -1 -1c0,1 0,0 0,1 -1,0 0,0 -1,-1z"/>
   <path class="fil69" d="M29 6c0,1 5,5 5,6l1 0c0,-1 0,-1 0,-2 -1,-1 -2,-1 -3,-2 -1,0 -2,-2 -3,-3l0 1z"/>
   <path class="fil14" d="M14 60c0,1 1,2 1,2 0,-1 0,-1 1,-2 0,-1 1,-1 2,-2 1,0 3,-1 4,-2l0 0c-1,0 -2,0 -3,1 -1,0 -1,0 -1,0 -1,1 -3,2 -4,3z"/>
   <path class="fil72" d="M7 42c1,0 1,1 2,1 0,1 1,1 1,2l2 0c1,-1 0,0 0,-1 -1,0 -3,-3 -4,-3l-1 1z"/>
   <path class="fil73" d="M24 50c0,-1 0,-1 1,-1 0,0 0,1 0,2 -1,0 -2,-1 -1,-1zm-1 1l1 0c0,0 0,0 -1,1l1 1c0,-1 0,-1 0,-1 0,0 0,0 0,0 1,0 1,2 0,2l0 2 1 0c0,-1 1,0 0,-1 0,0 0,0 0,0 0,0 0,0 0,-1 0,-1 0,-2 0,-3 0,-1 0,-1 0,-2 -1,-1 0,1 -2,-2l0 4z"/>
   <path class="fil14" d="M6 46c0,0 1,0 2,-1 0,0 1,0 2,0 0,-1 -1,-1 -1,-2 -1,0 -1,-1 -2,-1l-1 4z"/>
   <path class="fil64" d="M36 30c0,1 0,1 0,2l1 0 0 0c2,0 2,-1 3,-2 0,0 0,0 0,-1 0,0 -1,0 -1,0 0,0 0,0 0,-1 0,1 -1,1 -1,2 -1,0 -1,0 -2,0z"/>
   <path class="fil59" d="M26 6l0 0c0,-1 0,-1 0,-1 0,-1 1,0 1,0 0,1 -1,0 -1,1zm-1 -2c0,0 0,0 -1,1 0,1 1,1 1,2l0 0 1 0c0,-1 1,-2 2,-3l-1 0c-1,0 0,-1 -2,-1l-1 0c0,0 0,1 1,1z"/>
   <path class="fil11" d="M124 35c1,0 3,0 5,2 1,0 1,1 1,1 0,-2 0,-2 0,-3l-4 0c-1,0 -1,0 -1,0l-1 0z"/>
   <path class="fil42" d="M37 32c0,0 0,1 1,2 1,-1 2,-2 3,-2 0,-1 0,-1 0,0 0,-1 0,-1 -1,-2 -1,1 -1,2 -3,2z"/>
   <path class="fil58" d="M66 61c1,0 4,1 6,1 1,0 0,0 1,0 1,0 2,0 3,0l0 -1c-1,1 -1,1 -1,0 -1,1 -1,1 -1,0 -1,1 -2,0 -3,0 0,0 0,0 -1,0 0,0 0,0 0,0l-1 0c0,0 0,0 0,0 -1,0 -1,0 -1,-1l-2 0c0,0 0,0 0,1z"/>
   <path class="fil74" d="M30 17c-1,0 -1,-1 -1,-1 -3,-3 1,-1 1,1zm0 1c0,0 1,-1 1,-1 0,-1 0,-1 0,-1 -1,-1 -3,-3 -4,-3 0,1 1,3 1,3 1,1 1,1 1,1 1,1 1,0 1,1z"/>
   <path class="fil75" d="M14 44c1,0 3,2 3,3 1,0 1,1 2,1 0,0 0,0 0,0l1 1 -1 -2c0,0 0,0 0,0 -1,-1 -1,-1 -2,-2 0,0 -2,-2 -2,-2l-1 1z"/>
   <path class="fil76" d="M14 59c0,1 0,1 0,1 1,-1 3,-2 4,-3 0,0 0,0 1,0 1,-1 2,-1 3,-1l0 -1c-2,0 -3,1 -4,2 -1,0 -2,0 -2,1 -1,0 -1,0 -2,1z"/>
   <path class="fil75" d="M38 34c0,0 0,1 1,1l1 -1c0,0 0,0 1,0 1,-1 1,-1 1,-1 0,0 0,0 1,0 -1,-1 -1,-1 -2,-1 0,-1 0,-1 0,0 -1,0 -2,1 -3,2z"/>
   <path class="fil57" d="M28 7l1 0c0,1 -1,0 0,0l1 2c1,0 4,3 4,4 0,-1 0,-1 0,-1 0,-1 -5,-5 -5,-6l-1 1z"/>
   <path class="fil54" d="M39 35l0 1 0 0c2,-2 4,-2 6,-2 0,0 -2,-1 -2,-1 -1,0 -1,0 -1,0 0,0 0,0 -1,1 -1,0 -1,0 -1,0l-1 1z"/>
   <path class="fil39" d="M38 37c0,0 0,0 0,0l1 0c0,1 0,1 0,1 1,1 1,2 2,3 0,-1 0,-2 1,-2 0,0 -1,-1 -2,-2 0,-1 0,-1 -1,-1l0 0c0,0 -1,1 -1,1z"/>
   <path class="fil77" d="M15 12c0,1 0,1 0,0l-1 0c0,0 0,0 0,0 0,0 0,0 0,0 0,1 0,1 -1,1 1,0 2,1 3,1l0 -1c0,0 0,0 0,1l2 0c0,0 0,0 0,0 1,-1 0,-1 0,-1 -1,0 -1,0 -1,-1 0,0 0,0 -1,0l0 0 0 -1 -1 1z"/>
   <path class="fil57" d="M21 16c1,0 0,0 1,1l0 0c1,1 2,3 2,4 1,0 1,0 1,0 0,0 0,0 1,0 0,0 0,0 0,0 -1,-1 -2,-2 -2,-3 -1,-1 -2,-2 -3,-3 0,0 0,0 0,0l0 1z"/>
   <path class="fil67" d="M9 38c1,0 2,2 2,2 1,1 1,1 2,2l0 0c0,0 0,0 0,-1 0,-1 0,0 0,-1 -1,0 -1,-1 -1,-1 -1,-1 -2,-2 -2,-2l-1 1z"/>
   <path class="fil65" d="M18 17c0,0 0,0 0,1l-1 0c1,0 0,2 0,2 0,1 0,2 -1,1l0 1c0,0 0,0 0,0 0,0 0,0 0,0 0,0 0,0 -1,0 0,0 0,0 0,1 1,0 2,-1 3,-1 -1,0 -1,-1 0,-1 0,0 0,-1 0,-1l0 0c0,0 0,0 0,0 0,0 0,0 -1,-1 0,0 1,-1 1,0 1,0 1,0 1,-1 0,0 0,0 0,0 0,0 0,-1 0,-1 0,-1 0,-1 -1,-1l0 0 0 1z"/>
   <path class="fil62" d="M38 35c1,0 1,2 0,1 -1,0 -1,-2 0,-1zm-2 -2l-1 0 1 1 0 0 1 1c0,1 0,1 0,1 1,1 1,1 1,1 0,0 1,-1 1,-1l0 -1c-1,0 -1,-1 -1,-1 -1,-1 -1,-2 -1,-2l0 0c0,0 0,1 -1,1l0 0z"/>
   <path class="fil31" d="M80 59c1,0 1,0 1,1 0,0 0,0 0,1l0 0 1 0 2 0c-1,-1 0,-1 0,-2 0,0 0,0 -1,0 0,0 0,1 -1,0 0,0 0,0 0,-1l-1 0 0 0c0,1 0,1 0,1 -1,0 -1,-1 -1,0z"/>
   <path class="fil64" d="M15 41c1,0 0,0 1,0l2 2 0 -2c-1,-1 -2,-2 -3,-2l0 2z"/>
   <path class="fil70" d="M15 42l0 0c0,0 1,1 2,2 0,0 0,0 1,0 0,1 0,1 1,1l-1 -2 -2 -2c-1,0 0,0 -1,0l0 1z"/>
   <path class="fil67" d="M15 42l0 1c0,0 2,2 2,2 1,1 1,1 2,2 0,0 0,0 0,0l0 -2c-1,0 -1,0 -1,-1 -1,0 -1,0 -1,0 -1,-1 -2,-2 -2,-2l0 0z"/>
   <path class="fil78" d="M95 99c0,0 -1,0 -1,0 -1,0 -2,1 -3,1l-1 0 0 0 0 0 2 0c0,0 1,0 1,0 1,0 1,0 1,1l1 -1c0,0 1,0 1,0 0,0 0,0 0,0 0,0 0,0 1,0 0,0 0,0 0,0 1,0 0,0 0,0 0,-1 0,-1 0,-1l-2 0z"/>
   <path class="fil50" d="M33 24l0 1 0 -1c1,0 1,0 2,1 0,1 0,1 -2,1l1 1c1,0 1,0 2,-1 0,0 0,-1 0,-2 -1,-1 -3,-1 -3,-1 0,1 0,1 0,1z"/>
   <path class="fil49" d="M17 29c1,0 1,1 1,1l1 1 1 -2c-1,0 -1,-1 -2,-1 0,-1 0,-1 -1,-2l0 3z"/>
   <path class="fil20" d="M65 66c0,1 0,1 1,2 1,0 2,0 3,0 1,0 -2,-3 -4,-2z"/>
   <path class="fil64" d="M18 24c0,1 2,2 2,2 0,0 1,-1 2,-1l-1 0c0,-1 -1,-1 -1,-2 0,0 -1,1 -2,1z"/>
   <path class="fil79" d="M16 36c0,0 0,0 0,0 0,0 1,1 1,1 0,0 0,0 1,0 0,0 0,-1 0,-2 0,-1 0,0 -1,-1 0,0 0,0 -1,0l0 2z"/>
   <path class="fil70" d="M10 37c0,0 1,1 2,2 0,0 0,1 1,1 0,1 0,0 0,1 0,0 1,-1 0,-1 0,-1 0,-2 -1,-2 -1,-1 -1,-2 -2,-2l0 1z"/>
   <path class="fil80" d="M11 35c0,0 1,2 3,3l0 1 0 -2c0,0 0,0 -1,-1 0,-1 -1,-2 -2,-2l0 1z"/>
   <path class="fil78" d="M53 54l0 0c1,0 1,0 1,1l1 0c0,0 0,0 0,-1 0,0 -3,-2 -3,-2 0,0 -1,0 -1,0 0,-1 0,0 0,-1 -1,0 -1,-1 -2,-1 0,1 0,1 1,1 0,0 0,1 1,1 0,0 1,1 2,2z"/>
   <path class="fil81" d="M84 100c1,0 3,0 3,0 1,0 1,0 2,0 0,0 1,0 1,0l0 0c0,0 0,0 0,-1 -1,0 -3,0 -4,0 -2,0 -2,0 -2,0l0 1z"/>
   <path class="fil64" d="M10 36c1,0 1,1 2,2 1,0 1,1 1,2 1,-1 1,0 1,-1l0 -1c-2,-1 -3,-3 -3,-3l-1 1z"/>
   <path class="fil82" d="M35 29l1 1 0 0c1,0 1,0 2,0 0,-1 1,-1 1,-2l-1 -1c-1,0 0,1 -1,1 -2,2 -1,1 -2,1z"/>
   <path class="fil83" d="M22 34c0,1 -1,1 -2,2 0,1 0,3 0,4l0 -1c1,-1 0,-1 1,-1 1,0 1,0 1,0 -1,-2 0,-3 1,-4l0 0 -1 0z"/>
   <path class="fil84" d="M11 33c1,0 2,2 3,3l1 -2c-1,0 -1,-1 -2,-1 0,0 -1,-1 -1,-1l-1 1z"/>
   <path class="fil43" d="M32 21c1,1 1,0 1,1 0,0 1,0 1,0 1,0 1,0 2,0l-1 -2c-1,0 -1,0 -2,0 0,0 -1,1 -1,0 0,0 0,0 0,1 0,0 0,0 0,0z"/>
   <path class="fil75" d="M9 39c0,0 0,0 1,1l2 2c0,0 0,1 1,1 0,0 0,0 0,0 0,0 0,0 0,-1l0 0c-1,-1 -1,-1 -2,-2 0,0 -1,-2 -2,-2l0 1z"/>
   <path class="fil82" d="M17 25c0,0 2,1 3,3l0 0 0 -2c0,0 -2,-1 -2,-2l-1 1z"/>
   <path class="fil49" d="M12 30l0 2c0,0 1,1 1,1 1,0 1,1 2,1l0 -1c-1,0 -1,-1 -2,-1 0,-1 0,-1 -1,-2 0,1 0,0 0,0z"/>
   <path class="fil36" d="M27 50c-1,0 -1,0 -1,0 0,0 1,1 1,1l0 1 0 1c0,-1 0,-1 0,-1 1,0 1,0 1,0 0,-1 0,-1 1,-1l0 -1c-1,0 -2,0 -2,0z"/>
   <path class="fil69" d="M22 18c0,1 0,1 1,1 0,1 0,1 0,2l1 0c0,-1 -1,-3 -2,-4l0 0c-1,-1 0,-1 -1,-1 0,1 0,2 1,2z"/>
   <path class="fil54" d="M26 48c1,1 0,0 0,1 0,0 1,0 1,0 0,-1 0,-1 0,-1 1,0 1,0 1,0l0 -2 -2 0 0 0 0 2z"/>
   <path class="fil43" d="M17 26c1,1 1,1 1,2 1,0 1,1 2,1l0 -1 0 0c-1,-2 -3,-3 -3,-3l0 0 0 1z"/>
   <path class="fil82" d="M16 37l-1 2c1,0 2,1 3,2l0 -2c-1,0 -1,-1 -1,-1 -1,0 -1,0 -1,0 0,-1 0,-1 0,-1z"/>
   <path class="fil85" d="M34 31c0,-1 0,-1 0,-1l1 0c0,0 0,0 0,0l0 0c-1,0 -1,-1 0,-1l-1 -2 -1 -1 0 0c0,0 0,0 0,0 0,0 0,1 0,1 0,1 1,0 1,1 0,1 0,2 0,3z"/>
   <path class="fil32" d="M108 47c1,1 3,0 3,-1 0,-1 -3,-1 -3,1z"/>
   <path class="fil83" d="M20 40c0,0 0,2 0,2l1 -1c0,0 0,0 0,0l0 1c0,-1 1,-1 1,-1 0,0 0,0 0,0 1,-1 1,-1 1,-1l0 -1 -1 1c0,0 0,0 0,0 0,0 0,0 0,0 0,0 0,0 -1,1l1 -3c-1,1 -1,0 -1,1 0,0 0,0 0,0 0,1 0,1 -1,1z"/>
   <path class="fil58" d="M77 62l0 0c1,0 1,0 2,0 0,0 0,0 0,0 1,0 1,1 2,0 0,0 0,0 1,-1 -2,0 -3,1 -5,1z"/>
   <path class="fil77" d="M11 15l0 0c0,1 0,1 -1,1l0 1c0,0 0,1 1,1 0,-1 0,-2 1,-2l0 -1c0,0 0,0 1,0 -1,-1 -1,0 0,0 -1,-1 -2,-1 -2,-1 0,0 0,0 0,1z"/>
   <path class="fil86" d="M15 31c0,-1 0,-2 0,-2 -1,-1 0,-1 -2,-1 0,1 0,1 1,2 0,0 0,0 0,0 1,1 1,1 1,1z"/>
   <path class="fil87" d="M94 96c1,1 0,1 0,1 1,0 1,0 2,0 0,-1 0,-1 1,0l0 -1 0 0c-1,-1 -2,0 -3,0z"/>
   <path class="fil52" d="M26 45c0,0 0,1 0,1l2 0 0 -1c-1,0 -1,0 -2,0 0,0 0,0 0,0l0 0z"/>
   <path class="fil88" d="M27 49l0 0 0 1c0,0 1,0 2,0l-1 -2c0,0 0,0 -1,0 0,0 0,0 0,1z"/>
   <path class="fil75" d="M25 43l0 0 0 1 1 1c0,0 0,0 0,0 1,0 1,0 2,0l0 -2 -2 0c-1,0 -1,0 -1,0 0,-1 0,-1 0,-1l0 1z"/>
   <path class="fil89" d="M18 19l0 0c0,1 0,1 0,1 0,0 0,0 0,0l0 0c0,0 0,1 0,1 0,0 0,0 0,1 1,0 1,-1 1,-1 0,0 0,0 0,0 -1,-1 -1,-1 0,-2 0,0 0,-1 0,-2 0,0 0,1 0,1 0,0 0,0 0,0 0,1 0,1 -1,1z"/>
   <path class="fil67" d="M25 42c0,0 0,0 0,1 0,0 0,0 1,0l2 0 -1 -1c0,0 -1,0 -2,0z"/>
   <path class="fil70" d="M25 42c1,0 2,0 2,0l0 -2 -2 0 0 2z"/>
   <path class="fil82" d="M11 34c1,0 2,1 2,2 1,1 1,1 1,1l0 -1c-1,-1 -2,-3 -3,-3l0 1z"/>
   <path class="fil90" d="M35 30l0 0c0,0 0,0 0,0l-1 0c0,0 0,0 0,1 0,0 1,2 1,2l1 0c-1,0 -1,-1 0,-2l0 1c0,-1 0,-1 0,-2l0 0 -1 0z"/>
   <path class="fil43" d="M16 37c0,0 0,0 0,1 0,0 0,0 1,0 0,0 0,1 1,1l0 -2c-1,0 -1,0 -1,0 0,0 -1,-1 -1,-1 0,0 0,0 0,0l0 1z"/>
   <path class="fil91" d="M58 57l1 1 0 -1c1,0 1,1 1,1l1 1c0,-1 0,-1 0,-1l-3 -2c0,1 0,1 0,1z"/>
   <polygon class="fil69" points="62,59 65,60 65,59 62,58 "/>
   <path class="fil92" d="M22 38l0 -1c0,0 0,0 0,0 0,0 1,0 1,0 0,0 0,0 0,-1 0,0 0,-1 0,-2 -1,1 -2,2 -1,4z"/>
   <path class="fil80" d="M32 20c0,1 1,0 1,0 1,0 1,0 2,0l0 -1c-1,0 -1,0 -2,0 0,0 0,0 0,0 -1,0 -1,0 -1,1z"/>
   <path class="fil74" d="M30 17c0,-2 -4,-4 -1,-1 0,0 0,1 1,1z"/>
   <path class="fil64" d="M33 19c0,0 0,0 0,0 1,0 1,0 2,0 -1,0 -1,-1 -1,-1 0,0 0,-1 0,-1 -1,1 -1,1 -1,2z"/>
   <path class="fil86" d="M27 30c1,1 -1,0 0,1 1,-1 1,-2 0,-3l-1 0 1 2z"/>
   <path class="fil93" d="M22 41c0,1 -1,2 0,2l0 0c1,-1 1,-2 1,-3 0,0 0,0 -1,1 0,0 0,0 0,0z"/>
   <path class="fil67" d="M21 23c0,0 0,0 0,0 1,1 1,1 1,1 1,0 1,0 1,-1l0 0c0,0 0,0 0,0 -1,-1 -2,-1 -2,0z"/>
   <path class="fil82" d="M28 22c0,1 0,0 1,1 1,0 1,0 1,0 0,-1 0,0 0,0l0 -2c0,0 -1,1 -2,1z"/>
   <path class="fil86" d="M33 25l0 1 0 0c2,0 2,0 2,-1 -1,-1 -1,-1 -2,-1l0 1z"/>
   <path class="fil92" d="M21 34l-1 2c1,-1 2,-1 2,-2 0,0 0,-1 0,-1 -1,0 -1,0 -1,1z"/>
   <path class="fil42" d="M20 23c0,1 1,1 1,2l1 0 0 -1c0,0 0,0 -1,-1 0,0 0,0 0,0l-1 0z"/>
   <polygon class="fil64" points="25,40 25,40 27,40 27,39 26,39 "/>
   <path class="fil92" d="M21 42c0,0 0,0 -1,0l1 2c0,0 0,0 0,0 0,0 0,-1 0,-1 0,0 0,0 1,0 -1,0 0,-1 0,-2 0,0 -1,0 -1,1z"/>
   <path class="fil92" d="M22 38l0 0 -1 3c1,-1 1,-1 1,-1 0,0 0,0 0,0 0,0 0,0 0,0 0,-1 1,-2 1,-2 -1,0 -1,0 -1,0z"/>
   <path class="fil94" d="M84 61c0,0 0,0 1,0 0,-1 0,-1 -1,-2 0,1 -1,1 0,2z"/>
   <path class="fil95" d="M70 61c0,0 0,0 0,0 1,0 1,0 1,0 1,-1 1,-1 0,-1 -1,0 -1,0 -1,1z"/>
   <path class="fil96" d="M22 38c0,0 0,0 -1,0 -1,0 0,0 -1,1l0 1c1,0 1,0 1,-1 0,0 0,0 0,0 0,-1 0,0 1,-1l0 0c0,0 0,-1 0,-1l0 1z"/>
   <path class="fil95" d="M68 60c0,1 0,1 1,1 0,0 0,0 0,0 1,-1 0,-2 -1,-1l0 0z"/>
   <path class="fil95" d="M41 41c0,0 0,0 0,0 1,0 1,-1 1,-2l0 0c-1,0 -1,1 -1,2z"/>
   <path class="fil97" d="M95 59c0,1 0,1 1,1l0 0 1 -1 -1 0c0,0 -1,0 -1,0z"/>
   <path class="fil94" d="M93 60c0,1 0,1 1,1 1,0 1,0 0,-1 0,-1 0,0 0,-1 -1,1 -1,1 -1,1z"/>
   <path class="fil95" d="M78 60c-1,0 0,2 1,1 1,0 0,-2 -1,-1z"/>
   <path class="fil98" d="M51 51c0,1 0,0 0,1 0,0 1,0 1,0 0,-1 0,-1 0,-2 -1,0 -1,0 -1,1z"/>
   <path class="fil95" d="M67 58c0,1 -1,1 0,1 1,0 1,0 1,-1l-1 0 0 0z"/>
   <path class="fil98" d="M63 57c0,1 0,1 0,1 1,0 1,0 1,-1 -1,-1 -1,-1 -1,0z"/>
   <path class="fil95" d="M74 61c0,1 0,1 1,0 0,-2 -2,-2 -1,0z"/>
   <path class="fil99" d="M89 61c1,1 1,1 1,0 0,-1 0,-1 -1,-1l0 0c0,0 0,0 0,0 0,1 0,1 0,1z"/>
   <path class="fil97" d="M103 59l0 1c1,0 1,0 1,-1 -1,-1 -1,-1 -1,0z"/>
   <path class="fil94" d="M88 58c-2,2 1,3 0,0l0 0z"/>
   <path class="fil100" d="M78 98c2,0 2,-1 2,-1 -1,-1 -2,0 -2,1z"/>
   <path class="fil95" d="M81 61c0,-1 0,-1 0,-1 0,-1 0,-1 -1,-1 0,0 -1,1 1,2z"/>
   <path class="fil100" d="M86 98c-1,-1 -1,0 -1,1 0,0 0,0 1,0 0,-1 0,-1 0,-1z"/>
   <path class="fil101" d="M56 52c0,0 -1,0 -1,0 -2,0 1,3 1,0z"/>
   <path class="fil94" d="M93 97c0,0 0,0 1,0 0,0 1,0 0,-1 0,0 -1,0 -1,0l0 1z"/>
   <path class="fil91" d="M23 21c0,-1 0,-1 0,-2 -1,0 -1,0 -1,-1l0 2 1 1z"/>
   <path class="fil100" d="M75 96c0,2 2,2 2,0l0 0 -2 0z"/>
   <path class="fil94" d="M90 97c0,0 0,1 1,1 0,0 1,-1 1,-1 -1,-1 -1,-1 -1,-1 0,0 -1,0 -1,1z"/>
   <path class="fil102" d="M38 35c-1,-1 -1,1 0,1 1,1 1,-1 0,-1z"/>
   <path class="fil94" d="M87 97c0,0 0,0 1,0l0 0c0,-1 0,-2 -1,-1 0,0 0,0 0,1z"/>
   <path class="fil103" d="M36 33l0 0c1,0 1,-1 1,-1l-1 0 0 -1c-1,1 -1,2 0,2z"/>
   <path class="fil94" d="M82 97c0,1 1,1 1,0l0 -1c0,0 -1,0 -1,1z"/>
   <path class="fil101" d="M54 51c0,0 0,0 -1,-1 -1,1 -1,2 1,2 0,0 0,0 0,-1z"/>
   <path class="fil104" d="M22 43c-1,0 -1,0 -1,0 0,0 0,1 0,1 0,0 0,0 0,0l0 1c0,0 0,0 1,-1 0,0 0,-1 0,-1l0 0z"/>
   <path class="fil100" d="M74 97l0 -1c-2,0 -2,3 0,1z"/>
   <path class="fil105" d="M65 97c0,0 0,0 1,0l0 -1c-1,0 -1,0 -2,0l0 1c0,0 0,0 1,0z"/>
   <path class="fil101" d="M44 42l0 -1c-1,0 -1,1 -1,1 0,1 1,1 1,0z"/>
   <path class="fil105" d="M90 99c0,1 0,1 0,1l1 0c1,-1 -1,-2 -1,-1z"/>
   <path class="fil100" d="M89 99c0,-1 0,-1 -1,-1 -1,-1 -1,2 1,1z"/>
   <path class="fil105" d="M76 98c0,1 0,1 1,1 0,0 0,0 0,-1 0,0 0,0 -1,0z"/>
   <path class="fil100" d="M70 97c1,0 0,0 1,-1l0 0 -2 0 0 0 0 1 1 0z"/>
   <path class="fil99" d="M65 59l0 1 1 1c0,-1 0,-1 0,-1 0,-1 -1,-1 -1,-1z"/>
   <path class="fil97" d="M99 60c0,0 0,1 0,1l1 0 0 -1c0,-1 -1,-1 -1,0z"/>
   <path class="fil101" d="M94 99c0,0 1,0 1,0l0 -1c-1,0 -1,0 -2,0l1 1z"/>
   <path class="fil106" d="M55 55l1 1 0 -1 0 0c0,-1 0,-1 -1,-1 0,1 0,1 0,1z"/>
   <path class="fil97" d="M92 59c0,0 0,0 1,0l0 0 0 -1c-1,-1 -1,0 -1,1z"/>
   <path class="fil106" d="M57 56l1 1c0,0 0,0 0,-1 0,0 0,0 0,-1 -1,1 -1,1 -1,1z"/>
   <path class="fil100" d="M96 97c0,1 0,1 1,1l0 1 0 -2c-1,-1 -1,-1 -1,0z"/>
   <polygon class="fil80" points="26,39 27,39 26,37 25,37 "/>
   <path class="fil105" d="M70 99l0 0 1 0c0,0 0,0 0,-1 0,-1 -2,0 -1,1z"/>
   <path class="fil100" d="M80 99c1,0 0,0 1,0l1 0 0 -1c-1,0 -1,0 -2,0l0 1z"/>
   <path class="fil101" d="M49 47l-1 -1c-1,1 0,2 1,2l0 -1z"/>
   <path class="fil99" d="M61 59c0,0 1,0 1,0l0 -1 0 0 -1 0c0,0 0,0 0,1z"/>
   <path class="fil99" d="M76 61l0 1 1 0 0 0c0,-1 -1,-1 -1,-1z"/>
   <path class="fil95" d="M73 59l-1 0 0 0c0,0 0,1 0,1 1,0 1,-1 1,-1z"/>
   <path class="fil104" d="M21 34c0,-1 0,-1 1,-1 0,0 0,0 0,-1l0 0c-1,0 -1,1 -1,2z"/>
   <path class="fil102" d="M24 50c-1,0 0,1 1,1 0,-1 0,-2 0,-2 -1,0 -1,0 -1,1z"/>
   <path class="fil97" d="M26 55c1,0 1,0 1,0l0 -1c-1,-1 -1,0 -1,1z"/>
   <path class="fil105" d="M67 98l1 1c1,-2 -1,-2 -1,-1z"/>
   <path class="fil100" d="M29 63l0 -1c-1,0 -1,0 -1,0 -1,0 -1,1 0,1l1 0z"/>
   <path class="fil97" d="M26 59c1,-1 1,-1 1,-2l-1 0c-1,0 -1,2 0,2z"/>
   <path class="fil94" d="M28 60l0 -1c0,0 0,0 -1,0 0,1 0,1 0,1 1,1 1,1 1,0z"/>
   <path class="fil105" d="M62 95l-2 -1 0 1c1,0 1,1 1,0 1,0 0,0 1,0z"/>
   <path class="fil102" d="M111 60l1 0c0,-1 0,-1 0,-1 -1,0 -1,0 -1,1z"/>
   <path class="fil97" d="M27 52l0 -1c-2,-1 -2,2 0,1z"/>
   <path class="fil97" d="M89 95l0 1c1,0 2,0 1,-1l-1 0z"/>
   <path class="fil100" d="M28 66c0,0 0,0 0,0 0,0 0,0 0,0 0,0 0,0 0,0l1 0c0,-1 0,-1 0,-1 -1,0 -1,0 -1,1z"/>
   <path class="fil102" d="M24 53l0 1c1,0 1,-2 0,-2 0,0 0,0 0,0 0,0 0,0 0,1z"/>
   <path class="fil97" d="M105 59c1,0 1,0 1,-1l0 0 -1 0c0,0 0,0 0,0 0,0 0,0 0,1z"/>
   <path class="fil107" d="M25 48c0,0 0,0 0,-1 -1,-1 -1,1 0,1z"/>
   <path class="fil97" d="M90 59c1,-1 1,-1 1,-1l-1 0c-1,0 0,1 0,1z"/>
   <path class="fil94" d="M83 59l0 -1 0 0 -1 0c0,1 0,1 0,1 1,1 1,0 1,0z"/>
   <path class="fil99" d="M81 62l3 0 -1 0c-1,-1 0,0 -1,-1 -1,1 -1,1 -1,1z"/>
   <path class="fil97" d="M108 58l-1 0c0,1 0,1 1,1 0,0 0,0 0,0l0 -1z"/>
   <path class="fil108" d="M22 33c0,0 0,1 0,1l1 0 -1 -2c0,1 0,1 0,1z"/>
   <path class="fil107" d="M24 44c1,1 0,1 1,1 0,-1 0,0 0,-1l0 -1 0 0 -1 1z"/>
   <path class="fil105" d="M83 99l0 1c0,0 1,0 1,0l0 -1c0,0 -1,0 -1,0z"/>
   <path class="fil97" d="M97 59l0 0c1,0 1,0 1,0 1,0 1,0 1,-1l0 0c-1,0 0,0 -1,0 0,1 0,1 -1,1z"/>
   <path class="fil78" d="M56 56c0,0 0,0 1,0 0,0 0,0 1,-1 0,0 0,0 0,0 -1,0 -1,0 -2,0l0 0 0 1z"/>
   <path class="fil105" d="M72 99c0,1 2,1 2,0 0,-1 -1,-1 -2,0z"/>
   <path class="fil102" d="M25 57c1,0 1,0 0,-1l-1 0 1 1z"/>
   <path class="fil97" d="M94 58l1 0c0,0 0,0 0,-1l-1 0c0,1 -1,1 0,1z"/>
   <path class="fil104" d="M24 6c-2,0 -1,1 -1,1 1,0 1,-1 1,-1z"/>
   <path class="fil104" d="M22 4c-1,2 1,2 1,0l-1 0z"/>
   <path class="fil103" d="M35 30l1 0 -1 -1 0 0c-1,0 -1,1 0,1z"/>
   <path class="fil100" d="M64 95l-1 0 0 0c0,1 1,1 1,0z"/>
   <path class="fil109" d="M12 18c0,0 0,0 1,-1 -1,0 0,0 -1,0 -1,0 -1,0 0,1 0,0 0,0 0,0z"/>
   <path class="fil110" d="M19 7c1,1 1,-1 0,-1 0,1 0,1 0,1z"/>
   <path class="fil100" d="M30 68l0 -2 -1 1c0,0 0,1 1,1z"/>
   <path class="fil97" d="M84 95l0 0c1,1 2,1 2,0l-2 0z"/>
   <path class="fil111" d="M18 22l0 0c0,-1 0,-1 0,-1 -1,0 -1,1 0,1z"/>
   <path class="fil47" d="M118 61c1,-1 1,0 1,-1l-2 0c1,0 1,0 1,1z"/>
   <path class="fil110" d="M22 9c0,0 -1,0 -1,0 -1,0 -1,1 0,1 0,0 1,0 1,-1z"/>
   <path class="fil101" d="M96 101l1 0 0 -1c-1,0 -1,0 -1,0 -1,0 0,0 -1,1l1 0z"/>
   <path class="fil109" d="M12 20c0,-1 -1,-1 -1,-1 -1,1 0,1 1,1z"/>
   <path class="fil104" d="M21 8c1,0 0,0 1,1 1,-1 1,-1 1,-1 -1,-1 -1,0 -2,0z"/>
   <path class="fil101" d="M59 54l-1 0c0,0 0,-1 0,0 0,1 0,1 1,1l0 -1z"/>
   <path class="fil89" d="M14 18c0,0 -1,0 -1,0 1,1 1,1 1,1 1,-1 0,-2 0,-1z"/>
   <path class="fil112" d="M17 12c0,1 0,1 1,1l0 0c0,-1 1,-1 0,-1 0,0 0,0 0,0 -1,0 0,0 -1,0z"/>
   <path class="fil113" d="M12 16c0,0 0,0 0,0l0 0 1 -1c-1,0 -1,0 -1,0l0 1z"/>
   <path class="fil101" d="M51 49l-1 -1c0,0 0,1 0,1l1 0c0,0 0,0 0,0z"/>
   <path class="fil89" d="M13 21c0,0 0,0 0,0 0,-1 0,0 0,-1 0,0 0,0 1,0 -1,0 -1,0 -1,0 -1,0 -1,0 -1,1l1 0z"/>
   <path class="fil103" d="M32 25l1 1c0,0 0,0 0,0l0 -1 0 -1c-1,1 0,0 -1,1z"/>
   <path class="fil104" d="M24 9c0,0 0,0 0,0 0,-1 0,-1 0,-1 0,0 0,0 -1,0 0,1 0,1 1,1z"/>
   <path class="fil110" d="M19 8c0,1 0,1 0,1 2,0 1,-1 0,-1z"/>
   <path class="fil104" d="M21 6c0,0 0,1 0,1 1,0 1,-1 0,-1z"/>
   <path class="fil110" d="M21 12c0,0 0,0 0,-1 0,0 0,0 0,0 -1,0 -1,0 -1,1 0,0 0,0 1,0z"/>
   <path class="fil110" d="M24 5c1,-1 1,-1 1,-1 -2,0 -2,1 -1,1z"/>
   <path class="fil111" d="M15 10c1,0 1,0 1,0 0,-1 0,0 0,-1 -1,0 -1,1 -1,1z"/>
   <path class="fil113" d="M17 20c0,-1 0,-1 -1,-1 0,0 -1,1 1,1z"/>
   <path class="fil112" d="M13 13l0 0c1,0 1,0 1,-1 -1,0 -1,0 -1,1z"/>
   <path class="fil114" d="M92 100c1,1 1,1 1,1l1 0c0,-1 0,-1 -1,-1 0,0 -1,0 -1,0z"/>
   <path class="fil109" d="M14 22c0,0 0,0 0,0 1,0 1,-1 0,-1 0,1 0,1 0,1z"/>
   <path class="fil94" d="M86 60l0 1 1 -1 0 0c0,-1 -1,-1 -1,0z"/>
   <path class="fil112" d="M16 12l0 0 1 0c0,-1 0,-1 -1,-1l0 1z"/>
   <path class="fil111" d="M19 12l0 1c0,0 0,0 1,0l0 0c0,-1 0,-1 -1,-1z"/>
   <path class="fil112" d="M18 20c0,0 0,0 0,-1l0 0c0,-1 -1,0 -1,0 1,1 1,1 1,1z"/>
   <path class="fil97" d="M101 61l2 -1 0 0c0,0 -1,0 -1,0 0,0 0,0 0,0 0,0 -1,-1 -1,1z"/>
   <path class="fil112" d="M17 18l1 0c0,-1 0,-1 0,-1 -1,0 -1,0 -1,1z"/>
   <path class="fil112" d="M16 21c1,1 1,0 1,-1 -1,0 -1,0 -1,1l0 0z"/>
   <path class="fil110" d="M17 8c0,1 1,1 1,1 0,-2 -1,-2 -1,-1z"/>
   <path class="fil99" d="M86 61c0,1 1,1 1,-1l-1 1z"/>
   <path class="fil111" d="M18 10l0 1 1 0c0,-1 0,-1 -1,-1l0 0z"/>
   <path class="fil112" d="M14 12l1 0c0,1 0,1 0,0 0,-1 -1,-1 -1,0z"/>
   <path class="fil103" d="M114 60l2 0 -1 -1 0 1c-1,0 -1,0 -1,0z"/>
   <path class="fil109" d="M15 17c0,0 0,0 0,0l1 1c0,-1 0,-1 -1,-1 0,0 0,0 0,0z"/>
   <path class="fil100" d="M31 69l0 0 0 0c-1,0 -1,0 -1,0 0,1 0,1 1,1l0 -1z"/>
   <path class="fil109" d="M13 16c1,1 0,0 1,1 0,0 0,0 0,-1 0,-1 -1,-1 -1,0z"/>
   <path class="fil109" d="M14 20c0,0 0,0 1,1 0,-1 0,-1 0,-1 0,0 0,0 0,0l-1 0z"/>
   <path class="fil110" d="M25 8c0,-1 0,-1 1,-1l-1 0 0 0c0,0 0,1 0,1z"/>
   <path class="fil106" d="M59 58l1 0c0,0 0,-1 -1,-1l0 1z"/>
   <path class="fil97" d="M91 95l0 0c1,0 1,0 2,0 0,0 0,0 0,-1l-2 1z"/>
   <path class="fil110" d="M26 6c0,-1 1,0 1,-1 0,0 -1,-1 -1,0 0,0 0,0 0,1l0 0z"/>
   <path class="fil103" d="M116 60l2 1c0,-1 0,-1 -1,-1l0 0 0 0 -1 0 0 0z"/>
   <path class="fil96" d="M20 42l0 0c1,0 1,0 1,0l0 -1c0,0 0,0 0,0l-1 1z"/>
   <path class="fil94" d="M100 58l0 0c1,0 1,0 1,-1l-1 0c0,1 0,1 0,1z"/>
   <path class="fil104" d="M22 37c0,0 0,1 0,1 0,0 0,0 1,0 0,-1 0,-1 0,-2 0,1 0,1 0,1 0,0 -1,0 -1,0 0,0 0,0 0,0z"/>
   <path class="fil97" d="M26 46l0 0c0,0 0,-1 0,-1 -1,0 -1,1 0,1z"/>
   <path class="fil115" d="M26 50l1 0 0 -1 0 0c0,0 -1,0 -1,0 0,-1 1,0 0,-1 0,1 0,1 0,2z"/>
   <path class="fil99" d="M97 59c1,0 1,0 1,-1 1,0 0,0 1,0 -1,-1 -2,0 -2,1z"/>
   <path class="fil101" d="M62 55c-1,0 -1,0 -1,0 -1,0 -1,0 -1,1 0,0 1,0 1,0 0,0 0,0 1,-1z"/>
   <path class="fil110" d="M19 21l0 -2c-1,1 -1,1 0,2z"/>
   <path class="fil94" d="M91 62l2 0c-1,0 -1,-2 -2,0z"/>
   <path class="fil110" d="M16 8c0,0 0,0 0,0l1 0c0,0 0,0 -1,-1l0 1z"/>
   <path class="fil106" d="M53 54c0,0 1,0 1,1 0,-1 0,-1 -1,-1l0 0z"/>
   <path class="fil101" d="M46 44l-1 -1c0,0 0,1 1,1l0 0z"/>
   <path class="fil109" d="M11 22c0,0 1,0 1,0 0,0 0,0 0,-1 -1,0 -1,0 -1,1z"/>
   <polygon class="fil101" points="48,49 49,50 49,49 49,49 "/>
   <path class="fil102" d="M37 35l-1 -1 0 0c0,1 0,1 1,1z"/>
   <path class="fil112" d="M10 19c1,-1 1,-1 1,-1 -1,0 -1,-1 -1,-1l0 2z"/>
   <path class="fil104" d="M21 4c0,0 0,0 0,0 0,0 0,0 1,0l0 -1 -1 1z"/>
   <path class="fil104" d="M20 5l0 0c0,0 1,0 0,-1 0,1 0,0 0,1 0,0 0,0 0,0z"/>
   <path class="fil111" d="M13 11c1,0 1,0 1,-1l0 0 -1 1z"/>
   <path class="fil100" d="M68 96l-1 -1c0,1 0,1 1,1l0 0z"/>
   <path class="fil112" d="M10 16c1,0 1,0 1,-1l0 0 -1 1z"/>
   <path class="fil95" d="M76 59c1,0 1,0 1,0 0,0 1,0 0,0 -1,0 -1,0 -1,0z"/>
   <path class="fil112" d="M16 14l0 0c0,-1 0,-1 0,-1l0 1z"/>
   <path class="fil94" d="M32 73c0,0 0,0 0,0 1,0 0,1 1,0l-1 -1 0 1z"/>
   <path class="fil103" d="M109 60l1 0c-1,-1 -1,-1 -1,0z"/>
   <path class="fil95" d="M39 38c0,0 0,0 0,-1l-1 0 1 1z"/>
   <path class="fil113" d="M16 16c1,0 1,0 1,0l-1 0 0 0z"/>
   <path class="fil102" d="M23 52c1,-1 1,-1 1,-1l-1 0 0 1z"/>
   <line class="fil101" x1="46" y1="46" x2="46" y2= "46" />
  </g>
 </g>
</svg>
